<svg width="460" height="385" viewBox="0 0 460 385" fill="none" xmlns="http://www.w3.org/2000/svg">
<rect x="220" y="30" width="240" height="326" fill="#D9D9D9"/>
<path d="M261.383 59.5859C260.982 59.7995 260.57 59.9583 260.148 60.0625C259.727 60.1719 259.279 60.2266 258.805 60.2266C257.31 60.2266 256.148 59.6979 255.32 58.6406C254.497 57.5833 254.086 56.0964 254.086 54.1797C254.086 52.2734 254.5 50.7891 255.328 49.7266C256.161 48.6589 257.32 48.125 258.805 48.125C259.279 48.125 259.727 48.1797 260.148 48.2891C260.57 48.3932 260.982 48.5521 261.383 48.7656V50.3828C260.997 50.0651 260.583 49.8229 260.141 49.6562C259.698 49.4896 259.253 49.4062 258.805 49.4062C257.779 49.4062 257.01 49.8021 256.5 50.5938C255.99 51.3854 255.734 52.5807 255.734 54.1797C255.734 55.7734 255.99 56.9661 256.5 57.7578C257.01 58.5495 257.779 58.9453 258.805 58.9453C259.263 58.9453 259.711 58.862 260.148 58.6953C260.591 58.5286 261.003 58.2865 261.383 57.9688V59.5859ZM271.391 54.9062V55.6094H265.164V55.6562C265.122 56.849 265.349 57.7057 265.844 58.2266C266.344 58.7474 267.047 59.0078 267.953 59.0078C268.411 59.0078 268.891 58.9349 269.391 58.7891C269.891 58.6432 270.424 58.4219 270.992 58.125V59.5547C270.445 59.7786 269.917 59.9453 269.406 60.0547C268.901 60.1693 268.411 60.2266 267.938 60.2266C266.578 60.2266 265.516 59.8203 264.75 59.0078C263.984 58.1901 263.602 57.0651 263.602 55.6328C263.602 54.237 263.977 53.1224 264.727 52.2891C265.477 51.4557 266.477 51.0391 267.727 51.0391C268.841 51.0391 269.719 51.4167 270.359 52.1719C271.005 52.9271 271.349 53.8385 271.391 54.9062ZM269.953 54.4844C269.891 53.8802 269.669 53.3594 269.289 52.9219C268.914 52.4792 268.372 52.2578 267.664 52.2578C266.971 52.2578 266.401 52.487 265.953 52.9453C265.505 53.4036 265.26 53.9193 265.219 54.4922L269.953 54.4844ZM280.492 54.5781V60H279.047V54.5781C279.047 53.7917 278.909 53.2135 278.633 52.8438C278.357 52.474 277.924 52.2891 277.336 52.2891C276.664 52.2891 276.146 52.5286 275.781 53.0078C275.422 53.4818 275.242 54.1641 275.242 55.0547V60H273.805V51.25H275.242V52.5625C275.497 52.0625 275.844 51.6849 276.281 51.4297C276.719 51.1693 277.237 51.0391 277.836 51.0391C278.727 51.0391 279.391 51.3333 279.828 51.9219C280.271 52.5052 280.492 53.3906 280.492 54.5781ZM286.719 48.7656V51.25H289.984V52.3672H286.719V57.1172C286.719 57.763 286.841 58.2135 287.086 58.4688C287.331 58.724 287.758 58.8516 288.367 58.8516H289.984V60H288.227C287.148 60 286.388 59.7839 285.945 59.3516C285.503 58.9193 285.281 58.1745 285.281 57.1172V52.3672H282.945V51.25H285.281V48.7656H286.719ZM300.586 53.0547C300.279 52.8151 299.966 52.6406 299.648 52.5312C299.331 52.4219 298.982 52.3672 298.602 52.3672C297.706 52.3672 297.021 52.6484 296.547 53.2109C296.073 53.7734 295.836 54.5859 295.836 55.6484V60H294.391V51.25H295.836V52.9609C296.076 52.3411 296.443 51.8672 296.938 51.5391C297.438 51.2057 298.029 51.0391 298.711 51.0391C299.065 51.0391 299.396 51.0833 299.703 51.1719C300.01 51.2604 300.305 51.3984 300.586 51.5859V53.0547ZM306.688 55.6016H306.211C305.372 55.6016 304.74 55.75 304.312 56.0469C303.891 56.3385 303.68 56.776 303.68 57.3594C303.68 57.8854 303.839 58.2943 304.156 58.5859C304.474 58.8776 304.914 59.0234 305.477 59.0234C306.268 59.0234 306.891 58.75 307.344 58.2031C307.797 57.651 308.026 56.8906 308.031 55.9219V55.6016H306.688ZM309.477 55.0078V60H308.031V58.7031C307.724 59.224 307.336 59.6094 306.867 59.8594C306.404 60.1042 305.839 60.2266 305.172 60.2266C304.281 60.2266 303.57 59.9766 303.039 59.4766C302.508 58.9714 302.242 58.2969 302.242 57.4531C302.242 56.4792 302.568 55.7396 303.219 55.2344C303.875 54.7292 304.836 54.4766 306.102 54.4766H308.031V54.25C308.026 53.5521 307.849 53.0469 307.5 52.7344C307.151 52.4167 306.594 52.2578 305.828 52.2578C305.339 52.2578 304.844 52.3281 304.344 52.4688C303.844 52.6094 303.357 52.8151 302.883 53.0859V51.6484C303.414 51.4453 303.922 51.2943 304.406 51.1953C304.896 51.0911 305.37 51.0391 305.828 51.0391C306.552 51.0391 307.169 51.1458 307.68 51.3594C308.195 51.5729 308.612 51.8932 308.93 52.3203C309.128 52.5807 309.268 52.9036 309.352 53.2891C309.435 53.6693 309.477 54.2422 309.477 55.0078ZM316.461 56.8359C316.461 57.4818 316.578 57.9688 316.812 58.2969C317.052 58.625 317.404 58.7891 317.867 58.7891H319.547V60H317.727C316.867 60 316.201 59.7266 315.727 59.1797C315.258 58.6276 315.023 57.8464 315.023 56.8359V48.9219H312.719V47.7969H316.461V56.8359ZM334.938 58.6719L337.68 48.3359H339.312L335.898 60H333.984L330.57 48.3359H332.203L334.938 58.6719ZM348.148 59.5859C347.747 59.7995 347.336 59.9583 346.914 60.0625C346.492 60.1719 346.044 60.2266 345.57 60.2266C344.076 60.2266 342.914 59.6979 342.086 58.6406C341.263 57.5833 340.852 56.0964 340.852 54.1797C340.852 52.2734 341.266 50.7891 342.094 49.7266C342.927 48.6589 344.086 48.125 345.57 48.125C346.044 48.125 346.492 48.1797 346.914 48.2891C347.336 48.3932 347.747 48.5521 348.148 48.7656V50.3828C347.763 50.0651 347.349 49.8229 346.906 49.6562C346.464 49.4896 346.018 49.4062 345.57 49.4062C344.544 49.4062 343.776 49.8021 343.266 50.5938C342.755 51.3854 342.5 52.5807 342.5 54.1797C342.5 55.7734 342.755 56.9661 343.266 57.7578C343.776 58.5495 344.544 58.9453 345.57 58.9453C346.029 58.9453 346.477 58.862 346.914 58.6953C347.357 58.5286 347.768 58.2865 348.148 57.9688V59.5859ZM357.312 48.7344V50.3359C356.833 50.0286 356.352 49.7969 355.867 49.6406C355.388 49.4844 354.904 49.4062 354.414 49.4062C353.669 49.4062 353.081 49.5807 352.648 49.9297C352.216 50.2734 352 50.7396 352 51.3281C352 51.8438 352.141 52.237 352.422 52.5078C352.708 52.7786 353.24 53.0052 354.016 53.1875L354.844 53.375C355.938 53.6302 356.734 54.0312 357.234 54.5781C357.734 55.125 357.984 55.8698 357.984 56.8125C357.984 57.9219 357.641 58.7682 356.953 59.3516C356.266 59.9349 355.266 60.2266 353.953 60.2266C353.406 60.2266 352.857 60.1667 352.305 60.0469C351.753 59.9323 351.198 59.7578 350.641 59.5234V57.8438C351.24 58.224 351.805 58.5026 352.336 58.6797C352.872 58.8568 353.411 58.9453 353.953 58.9453C354.75 58.9453 355.37 58.7682 355.812 58.4141C356.255 58.0547 356.477 57.5547 356.477 56.9141C356.477 56.3307 356.323 55.8854 356.016 55.5781C355.714 55.2708 355.185 55.0339 354.43 54.8672L353.586 54.6719C352.503 54.4271 351.716 54.0573 351.227 53.5625C350.737 53.0677 350.492 52.4036 350.492 51.5703C350.492 50.5286 350.841 49.6953 351.539 49.0703C352.242 48.4401 353.174 48.125 354.336 48.125C354.784 48.125 355.255 48.1771 355.75 48.2812C356.245 48.3802 356.766 48.5312 357.312 48.7344ZM376.594 48.7344V50.3359C376.115 50.0286 375.633 49.7969 375.148 49.6406C374.669 49.4844 374.185 49.4062 373.695 49.4062C372.951 49.4062 372.362 49.5807 371.93 49.9297C371.497 50.2734 371.281 50.7396 371.281 51.3281C371.281 51.8438 371.422 52.237 371.703 52.5078C371.99 52.7786 372.521 53.0052 373.297 53.1875L374.125 53.375C375.219 53.6302 376.016 54.0312 376.516 54.5781C377.016 55.125 377.266 55.8698 377.266 56.8125C377.266 57.9219 376.922 58.7682 376.234 59.3516C375.547 59.9349 374.547 60.2266 373.234 60.2266C372.688 60.2266 372.138 60.1667 371.586 60.0469C371.034 59.9323 370.479 59.7578 369.922 59.5234V57.8438C370.521 58.224 371.086 58.5026 371.617 58.6797C372.154 58.8568 372.693 58.9453 373.234 58.9453C374.031 58.9453 374.651 58.7682 375.094 58.4141C375.536 58.0547 375.758 57.5547 375.758 56.9141C375.758 56.3307 375.604 55.8854 375.297 55.5781C374.995 55.2708 374.466 55.0339 373.711 54.8672L372.867 54.6719C371.784 54.4271 370.997 54.0573 370.508 53.5625C370.018 53.0677 369.773 52.4036 369.773 51.5703C369.773 50.5286 370.122 49.6953 370.82 49.0703C371.523 48.4401 372.456 48.125 373.617 48.125C374.065 48.125 374.536 48.1771 375.031 48.2812C375.526 48.3802 376.047 48.5312 376.594 48.7344ZM387.078 54.9062V55.6094H380.852V55.6562C380.81 56.849 381.036 57.7057 381.531 58.2266C382.031 58.7474 382.734 59.0078 383.641 59.0078C384.099 59.0078 384.578 58.9349 385.078 58.7891C385.578 58.6432 386.112 58.4219 386.68 58.125V59.5547C386.133 59.7786 385.604 59.9453 385.094 60.0547C384.589 60.1693 384.099 60.2266 383.625 60.2266C382.266 60.2266 381.203 59.8203 380.438 59.0078C379.672 58.1901 379.289 57.0651 379.289 55.6328C379.289 54.237 379.664 53.1224 380.414 52.2891C381.164 51.4557 382.164 51.0391 383.414 51.0391C384.529 51.0391 385.406 51.4167 386.047 52.1719C386.693 52.9271 387.036 53.8385 387.078 54.9062ZM385.641 54.4844C385.578 53.8802 385.357 53.3594 384.977 52.9219C384.602 52.4792 384.06 52.2578 383.352 52.2578C382.659 52.2578 382.089 52.487 381.641 52.9453C381.193 53.4036 380.948 53.9193 380.906 54.4922L385.641 54.4844ZM396.992 53.0547C396.685 52.8151 396.372 52.6406 396.055 52.5312C395.737 52.4219 395.388 52.3672 395.008 52.3672C394.112 52.3672 393.427 52.6484 392.953 53.2109C392.479 53.7734 392.242 54.5859 392.242 55.6484V60H390.797V51.25H392.242V52.9609C392.482 52.3411 392.849 51.8672 393.344 51.5391C393.844 51.2057 394.435 51.0391 395.117 51.0391C395.471 51.0391 395.802 51.0833 396.109 51.1719C396.417 51.2604 396.711 51.3984 396.992 51.5859V53.0547ZM398.391 51.25H399.883L402.422 58.5938L404.969 51.25H406.461L403.352 60H401.5L398.391 51.25ZM416 54.9062V55.6094H409.773V55.6562C409.732 56.849 409.958 57.7057 410.453 58.2266C410.953 58.7474 411.656 59.0078 412.562 59.0078C413.021 59.0078 413.5 58.9349 414 58.7891C414.5 58.6432 415.034 58.4219 415.602 58.125V59.5547C415.055 59.7786 414.526 59.9453 414.016 60.0547C413.51 60.1693 413.021 60.2266 412.547 60.2266C411.188 60.2266 410.125 59.8203 409.359 59.0078C408.594 58.1901 408.211 57.0651 408.211 55.6328C408.211 54.237 408.586 53.1224 409.336 52.2891C410.086 51.4557 411.086 51.0391 412.336 51.0391C413.451 51.0391 414.328 51.4167 414.969 52.1719C415.615 52.9271 415.958 53.8385 416 54.9062ZM414.562 54.4844C414.5 53.8802 414.279 53.3594 413.898 52.9219C413.523 52.4792 412.982 52.2578 412.273 52.2578C411.581 52.2578 411.01 52.487 410.562 52.9453C410.115 53.4036 409.87 53.9193 409.828 54.4922L414.562 54.4844ZM425.914 53.0547C425.607 52.8151 425.294 52.6406 424.977 52.5312C424.659 52.4219 424.31 52.3672 423.93 52.3672C423.034 52.3672 422.349 52.6484 421.875 53.2109C421.401 53.7734 421.164 54.5859 421.164 55.6484V60H419.719V51.25H421.164V52.9609C421.404 52.3411 421.771 51.8672 422.266 51.5391C422.766 51.2057 423.357 51.0391 424.039 51.0391C424.393 51.0391 424.724 51.0833 425.031 51.1719C425.339 51.2604 425.633 51.3984 425.914 51.5859V53.0547Z" fill="black"/>
<rect x="247.5" y="80.5" width="185" height="263" fill="white" stroke="#808080" stroke-width="3"/>
<path d="M285.609 115.004L287.666 107.252H288.891L286.33 116H284.895L282.334 107.252H283.559L285.609 115.004ZM295.793 112.18V112.707H291.123V112.742C291.092 113.637 291.262 114.279 291.633 114.67C292.008 115.061 292.535 115.256 293.215 115.256C293.559 115.256 293.918 115.201 294.293 115.092C294.668 114.982 295.068 114.816 295.494 114.594V115.666C295.084 115.834 294.688 115.959 294.305 116.041C293.926 116.127 293.559 116.17 293.203 116.17C292.184 116.17 291.387 115.865 290.812 115.256C290.238 114.643 289.951 113.799 289.951 112.725C289.951 111.678 290.232 110.842 290.795 110.217C291.357 109.592 292.107 109.279 293.045 109.279C293.881 109.279 294.539 109.562 295.02 110.129C295.504 110.695 295.762 111.379 295.793 112.18ZM294.715 111.863C294.668 111.41 294.502 111.02 294.217 110.691C293.936 110.359 293.529 110.193 292.998 110.193C292.479 110.193 292.051 110.365 291.715 110.709C291.379 111.053 291.195 111.439 291.164 111.869L294.715 111.863ZM303.229 110.791C302.998 110.611 302.764 110.48 302.525 110.398C302.287 110.316 302.025 110.275 301.74 110.275C301.068 110.275 300.555 110.486 300.199 110.908C299.844 111.33 299.666 111.939 299.666 112.736V116H298.582V109.438H299.666V110.721C299.846 110.256 300.121 109.9 300.492 109.654C300.867 109.404 301.311 109.279 301.822 109.279C302.088 109.279 302.336 109.312 302.566 109.379C302.797 109.445 303.018 109.549 303.229 109.689V110.791ZM309.393 109.666V110.721C309.084 110.541 308.773 110.406 308.461 110.316C308.148 110.227 307.83 110.182 307.506 110.182C307.018 110.182 306.652 110.262 306.41 110.422C306.172 110.578 306.053 110.818 306.053 111.143C306.053 111.436 306.143 111.654 306.322 111.799C306.502 111.943 306.949 112.084 307.664 112.221L308.098 112.303C308.633 112.404 309.037 112.607 309.311 112.912C309.588 113.217 309.727 113.613 309.727 114.102C309.727 114.75 309.496 115.258 309.035 115.625C308.574 115.988 307.934 116.17 307.113 116.17C306.789 116.17 306.449 116.135 306.094 116.064C305.738 115.998 305.354 115.896 304.939 115.76V114.646C305.342 114.854 305.727 115.01 306.094 115.115C306.461 115.217 306.809 115.268 307.137 115.268C307.613 115.268 307.982 115.172 308.244 114.98C308.506 114.785 308.637 114.514 308.637 114.166C308.637 113.666 308.158 113.32 307.201 113.129L307.154 113.117L306.75 113.035C306.129 112.914 305.676 112.711 305.391 112.426C305.105 112.137 304.963 111.744 304.963 111.248C304.963 110.619 305.176 110.135 305.602 109.795C306.027 109.451 306.635 109.279 307.424 109.279C307.775 109.279 308.113 109.312 308.438 109.379C308.762 109.441 309.08 109.537 309.393 109.666ZM312.773 109.461H315.533V115.162H317.672V116H312.316V115.162H314.455V110.299H312.773V109.461ZM314.455 106.912H315.533V108.271H314.455V106.912ZM321.762 110.193C321.215 110.193 320.801 110.406 320.52 110.832C320.238 111.258 320.098 111.889 320.098 112.725C320.098 113.557 320.238 114.188 320.52 114.617C320.801 115.043 321.215 115.256 321.762 115.256C322.312 115.256 322.729 115.043 323.01 114.617C323.291 114.188 323.432 113.557 323.432 112.725C323.432 111.889 323.291 111.258 323.01 110.832C322.729 110.406 322.312 110.193 321.762 110.193ZM321.762 109.279C322.672 109.279 323.367 109.574 323.848 110.164C324.332 110.754 324.574 111.607 324.574 112.725C324.574 113.846 324.334 114.701 323.854 115.291C323.373 115.877 322.676 116.17 321.762 116.17C320.852 116.17 320.156 115.877 319.676 115.291C319.195 114.701 318.955 113.846 318.955 112.725C318.955 111.607 319.195 110.754 319.676 110.164C320.156 109.574 320.852 109.279 321.762 109.279ZM331.541 111.934V116H330.457V111.934C330.457 111.344 330.354 110.91 330.146 110.633C329.939 110.355 329.615 110.217 329.174 110.217C328.67 110.217 328.281 110.396 328.008 110.756C327.738 111.111 327.604 111.623 327.604 112.291V116H326.525V109.438H327.604V110.422C327.795 110.047 328.055 109.764 328.383 109.572C328.711 109.377 329.1 109.279 329.549 109.279C330.217 109.279 330.715 109.5 331.043 109.941C331.375 110.379 331.541 111.043 331.541 111.934ZM342.398 115.027C343.395 115.027 344.09 114.783 344.484 114.295C344.879 113.803 345.076 112.916 345.076 111.635C345.076 110.342 344.879 109.451 344.484 108.963C344.094 108.471 343.398 108.225 342.398 108.225H341.836V115.027H342.398ZM342.422 107.252C343.758 107.252 344.742 107.607 345.375 108.318C346.008 109.029 346.324 110.135 346.324 111.635C346.324 113.127 346.008 114.229 345.375 114.939C344.742 115.646 343.758 116 342.422 116H340.646V107.252H342.422ZM351.188 112.701H350.83C350.201 112.701 349.727 112.812 349.406 113.035C349.09 113.254 348.932 113.582 348.932 114.02C348.932 114.414 349.051 114.721 349.289 114.939C349.527 115.158 349.857 115.268 350.279 115.268C350.873 115.268 351.34 115.062 351.68 114.652C352.02 114.238 352.191 113.668 352.195 112.941V112.701H351.188ZM353.279 112.256V116H352.195V115.027C351.965 115.418 351.674 115.707 351.322 115.895C350.975 116.078 350.551 116.17 350.051 116.17C349.383 116.17 348.85 115.982 348.451 115.607C348.053 115.229 347.854 114.723 347.854 114.09C347.854 113.359 348.098 112.805 348.586 112.426C349.078 112.047 349.799 111.857 350.748 111.857H352.195V111.688C352.191 111.164 352.059 110.785 351.797 110.551C351.535 110.312 351.117 110.193 350.543 110.193C350.176 110.193 349.805 110.246 349.43 110.352C349.055 110.457 348.689 110.611 348.334 110.814V109.736C348.732 109.584 349.113 109.471 349.477 109.396C349.844 109.318 350.199 109.279 350.543 109.279C351.086 109.279 351.549 109.359 351.932 109.52C352.318 109.68 352.631 109.92 352.869 110.24C353.018 110.436 353.123 110.678 353.186 110.967C353.248 111.252 353.279 111.682 353.279 112.256ZM357.902 107.574V109.438H360.352V110.275H357.902V113.838C357.902 114.322 357.994 114.66 358.178 114.852C358.361 115.043 358.682 115.139 359.139 115.139H360.352V116H359.033C358.225 116 357.654 115.838 357.322 115.514C356.99 115.189 356.824 114.631 356.824 113.838V110.275H355.072V109.438H356.824V107.574H357.902ZM365.648 112.701H365.291C364.662 112.701 364.188 112.812 363.867 113.035C363.551 113.254 363.393 113.582 363.393 114.02C363.393 114.414 363.512 114.721 363.75 114.939C363.988 115.158 364.318 115.268 364.74 115.268C365.334 115.268 365.801 115.062 366.141 114.652C366.48 114.238 366.652 113.668 366.656 112.941V112.701H365.648ZM367.74 112.256V116H366.656V115.027C366.426 115.418 366.135 115.707 365.783 115.895C365.436 116.078 365.012 116.17 364.512 116.17C363.844 116.17 363.311 115.982 362.912 115.607C362.514 115.229 362.314 114.723 362.314 114.09C362.314 113.359 362.559 112.805 363.047 112.426C363.539 112.047 364.26 111.857 365.209 111.857H366.656V111.688C366.652 111.164 366.52 110.785 366.258 110.551C365.996 110.312 365.578 110.193 365.004 110.193C364.637 110.193 364.266 110.246 363.891 110.352C363.516 110.457 363.15 110.611 362.795 110.814V109.736C363.193 109.584 363.574 109.471 363.938 109.396C364.305 109.318 364.66 109.279 365.004 109.279C365.547 109.279 366.01 109.359 366.393 109.52C366.779 109.68 367.092 109.92 367.33 110.24C367.479 110.436 367.584 110.678 367.646 110.967C367.709 111.252 367.74 111.682 367.74 112.256ZM374.145 112.725C374.145 111.889 374.012 111.258 373.746 110.832C373.48 110.406 373.088 110.193 372.568 110.193C372.045 110.193 371.648 110.408 371.379 110.838C371.109 111.264 370.975 111.893 370.975 112.725C370.975 113.553 371.109 114.182 371.379 114.611C371.648 115.041 372.045 115.256 372.568 115.256C373.088 115.256 373.48 115.043 373.746 114.617C374.012 114.191 374.145 113.561 374.145 112.725ZM370.975 110.275C371.146 109.955 371.383 109.709 371.684 109.537C371.988 109.365 372.34 109.279 372.738 109.279C373.527 109.279 374.148 109.584 374.602 110.193C375.055 110.799 375.281 111.635 375.281 112.701C375.281 113.783 375.053 114.633 374.596 115.25C374.143 115.863 373.52 116.17 372.727 116.17C372.336 116.17 371.99 116.086 371.689 115.918C371.393 115.746 371.154 115.498 370.975 115.174V116H369.896V106.883H370.975V110.275ZM380.109 112.701H379.752C379.123 112.701 378.648 112.812 378.328 113.035C378.012 113.254 377.854 113.582 377.854 114.02C377.854 114.414 377.973 114.721 378.211 114.939C378.449 115.158 378.779 115.268 379.201 115.268C379.795 115.268 380.262 115.062 380.602 114.652C380.941 114.238 381.113 113.668 381.117 112.941V112.701H380.109ZM382.201 112.256V116H381.117V115.027C380.887 115.418 380.596 115.707 380.244 115.895C379.896 116.078 379.473 116.17 378.973 116.17C378.305 116.17 377.771 115.982 377.373 115.607C376.975 115.229 376.775 114.723 376.775 114.09C376.775 113.359 377.02 112.805 377.508 112.426C378 112.047 378.721 111.857 379.67 111.857H381.117V111.688C381.113 111.164 380.98 110.785 380.719 110.551C380.457 110.312 380.039 110.193 379.465 110.193C379.098 110.193 378.727 110.246 378.352 110.352C377.977 110.457 377.611 110.611 377.256 110.814V109.736C377.654 109.584 378.035 109.471 378.398 109.396C378.766 109.318 379.121 109.279 379.465 109.279C380.008 109.279 380.471 109.359 380.854 109.52C381.24 109.68 381.553 109.92 381.791 110.24C381.939 110.436 382.045 110.678 382.107 110.967C382.17 111.252 382.201 111.682 382.201 112.256ZM388.928 109.666V110.721C388.619 110.541 388.309 110.406 387.996 110.316C387.684 110.227 387.365 110.182 387.041 110.182C386.553 110.182 386.188 110.262 385.945 110.422C385.707 110.578 385.588 110.818 385.588 111.143C385.588 111.436 385.678 111.654 385.857 111.799C386.037 111.943 386.484 112.084 387.199 112.221L387.633 112.303C388.168 112.404 388.572 112.607 388.846 112.912C389.123 113.217 389.262 113.613 389.262 114.102C389.262 114.75 389.031 115.258 388.57 115.625C388.109 115.988 387.469 116.17 386.648 116.17C386.324 116.17 385.984 116.135 385.629 116.064C385.273 115.998 384.889 115.896 384.475 115.76V114.646C384.877 114.854 385.262 115.01 385.629 115.115C385.996 115.217 386.344 115.268 386.672 115.268C387.148 115.268 387.518 115.172 387.779 114.98C388.041 114.785 388.172 114.514 388.172 114.166C388.172 113.666 387.693 113.32 386.736 113.129L386.689 113.117L386.285 113.035C385.664 112.914 385.211 112.711 384.926 112.426C384.641 112.137 384.498 111.744 384.498 111.248C384.498 110.619 384.711 110.135 385.137 109.795C385.562 109.451 386.17 109.279 386.959 109.279C387.311 109.279 387.648 109.312 387.973 109.379C388.297 109.441 388.615 109.537 388.928 109.666ZM397.02 112.18V112.707H392.35V112.742C392.318 113.637 392.488 114.279 392.859 114.67C393.234 115.061 393.762 115.256 394.441 115.256C394.785 115.256 395.145 115.201 395.52 115.092C395.895 114.982 396.295 114.816 396.721 114.594V115.666C396.311 115.834 395.914 115.959 395.531 116.041C395.152 116.127 394.785 116.17 394.43 116.17C393.41 116.17 392.613 115.865 392.039 115.256C391.465 114.643 391.178 113.799 391.178 112.725C391.178 111.678 391.459 110.842 392.021 110.217C392.584 109.592 393.334 109.279 394.271 109.279C395.107 109.279 395.766 109.562 396.246 110.129C396.73 110.695 396.988 111.379 397.02 112.18ZM395.941 111.863C395.895 111.41 395.729 111.02 395.443 110.691C395.162 110.359 394.756 110.193 394.225 110.193C393.705 110.193 393.277 110.365 392.941 110.709C392.605 111.053 392.422 111.439 392.391 111.869L395.941 111.863Z" fill="black"/>
<rect x="280" y="271" width="120" height="36" rx="18" fill="#D3D3D3"/>
<path d="M310.609 292.004L312.666 284.252H313.891L311.33 293H309.895L307.334 284.252H308.559L310.609 292.004ZM320.793 289.18V289.707H316.123V289.742C316.092 290.637 316.262 291.279 316.633 291.67C317.008 292.061 317.535 292.256 318.215 292.256C318.559 292.256 318.918 292.201 319.293 292.092C319.668 291.982 320.068 291.816 320.494 291.594V292.666C320.084 292.834 319.688 292.959 319.305 293.041C318.926 293.127 318.559 293.17 318.203 293.17C317.184 293.17 316.387 292.865 315.812 292.256C315.238 291.643 314.951 290.799 314.951 289.725C314.951 288.678 315.232 287.842 315.795 287.217C316.357 286.592 317.107 286.279 318.045 286.279C318.881 286.279 319.539 286.562 320.02 287.129C320.504 287.695 320.762 288.379 320.793 289.18ZM319.715 288.863C319.668 288.41 319.502 288.02 319.217 287.691C318.936 287.359 318.529 287.193 317.998 287.193C317.479 287.193 317.051 287.365 316.715 287.709C316.379 288.053 316.195 288.439 316.164 288.869L319.715 288.863ZM328.229 287.791C327.998 287.611 327.764 287.48 327.525 287.398C327.287 287.316 327.025 287.275 326.74 287.275C326.068 287.275 325.555 287.486 325.199 287.908C324.844 288.33 324.666 288.939 324.666 289.736V293H323.582V286.438H324.666V287.721C324.846 287.256 325.121 286.9 325.492 286.654C325.867 286.404 326.311 286.279 326.822 286.279C327.088 286.279 327.336 286.312 327.566 286.379C327.797 286.445 328.018 286.549 328.229 286.689V287.791ZM334.393 286.666V287.721C334.084 287.541 333.773 287.406 333.461 287.316C333.148 287.227 332.83 287.182 332.506 287.182C332.018 287.182 331.652 287.262 331.41 287.422C331.172 287.578 331.053 287.818 331.053 288.143C331.053 288.436 331.143 288.654 331.322 288.799C331.502 288.943 331.949 289.084 332.664 289.221L333.098 289.303C333.633 289.404 334.037 289.607 334.311 289.912C334.588 290.217 334.727 290.613 334.727 291.102C334.727 291.75 334.496 292.258 334.035 292.625C333.574 292.988 332.934 293.17 332.113 293.17C331.789 293.17 331.449 293.135 331.094 293.064C330.738 292.998 330.354 292.896 329.939 292.76V291.646C330.342 291.854 330.727 292.01 331.094 292.115C331.461 292.217 331.809 292.268 332.137 292.268C332.613 292.268 332.982 292.172 333.244 291.98C333.506 291.785 333.637 291.514 333.637 291.166C333.637 290.666 333.158 290.32 332.201 290.129L332.154 290.117L331.75 290.035C331.129 289.914 330.676 289.711 330.391 289.426C330.105 289.137 329.963 288.744 329.963 288.248C329.963 287.619 330.176 287.135 330.602 286.795C331.027 286.451 331.635 286.279 332.424 286.279C332.775 286.279 333.113 286.312 333.438 286.379C333.762 286.441 334.08 286.537 334.393 286.666ZM337.773 286.461H340.533V292.162H342.672V293H337.316V292.162H339.455V287.299H337.773V286.461ZM339.455 283.912H340.533V285.271H339.455V283.912ZM346.762 287.193C346.215 287.193 345.801 287.406 345.52 287.832C345.238 288.258 345.098 288.889 345.098 289.725C345.098 290.557 345.238 291.188 345.52 291.617C345.801 292.043 346.215 292.256 346.762 292.256C347.312 292.256 347.729 292.043 348.01 291.617C348.291 291.188 348.432 290.557 348.432 289.725C348.432 288.889 348.291 288.258 348.01 287.832C347.729 287.406 347.312 287.193 346.762 287.193ZM346.762 286.279C347.672 286.279 348.367 286.574 348.848 287.164C349.332 287.754 349.574 288.607 349.574 289.725C349.574 290.846 349.334 291.701 348.854 292.291C348.373 292.877 347.676 293.17 346.762 293.17C345.852 293.17 345.156 292.877 344.676 292.291C344.195 291.701 343.955 290.846 343.955 289.725C343.955 288.607 344.195 287.754 344.676 287.164C345.156 286.574 345.852 286.279 346.762 286.279ZM356.541 288.934V293H355.457V288.934C355.457 288.344 355.354 287.91 355.146 287.633C354.939 287.355 354.615 287.217 354.174 287.217C353.67 287.217 353.281 287.396 353.008 287.756C352.738 288.111 352.604 288.623 352.604 289.291V293H351.525V286.438H352.604V287.422C352.795 287.047 353.055 286.764 353.383 286.572C353.711 286.377 354.1 286.279 354.549 286.279C355.217 286.279 355.715 286.5 356.043 286.941C356.375 287.379 356.541 288.043 356.541 288.934ZM366.426 292.01H368.266V285.4L366.062 286.461V285.324L368.254 284.281H369.438V292.01H371.254V293H366.426V292.01Z" fill="black"/>
<rect x="280" y="211" width="120" height="36" rx="18" fill="#D3D3D3"/>
<path d="M310.609 232.004L312.666 224.252H313.891L311.33 233H309.895L307.334 224.252H308.559L310.609 232.004ZM320.793 229.18V229.707H316.123V229.742C316.092 230.637 316.262 231.279 316.633 231.67C317.008 232.061 317.535 232.256 318.215 232.256C318.559 232.256 318.918 232.201 319.293 232.092C319.668 231.982 320.068 231.816 320.494 231.594V232.666C320.084 232.834 319.688 232.959 319.305 233.041C318.926 233.127 318.559 233.17 318.203 233.17C317.184 233.17 316.387 232.865 315.812 232.256C315.238 231.643 314.951 230.799 314.951 229.725C314.951 228.678 315.232 227.842 315.795 227.217C316.357 226.592 317.107 226.279 318.045 226.279C318.881 226.279 319.539 226.562 320.02 227.129C320.504 227.695 320.762 228.379 320.793 229.18ZM319.715 228.863C319.668 228.41 319.502 228.02 319.217 227.691C318.936 227.359 318.529 227.193 317.998 227.193C317.479 227.193 317.051 227.365 316.715 227.709C316.379 228.053 316.195 228.439 316.164 228.869L319.715 228.863ZM328.229 227.791C327.998 227.611 327.764 227.48 327.525 227.398C327.287 227.316 327.025 227.275 326.74 227.275C326.068 227.275 325.555 227.486 325.199 227.908C324.844 228.33 324.666 228.939 324.666 229.736V233H323.582V226.438H324.666V227.721C324.846 227.256 325.121 226.9 325.492 226.654C325.867 226.404 326.311 226.279 326.822 226.279C327.088 226.279 327.336 226.312 327.566 226.379C327.797 226.445 328.018 226.549 328.229 226.689V227.791ZM334.393 226.666V227.721C334.084 227.541 333.773 227.406 333.461 227.316C333.148 227.227 332.83 227.182 332.506 227.182C332.018 227.182 331.652 227.262 331.41 227.422C331.172 227.578 331.053 227.818 331.053 228.143C331.053 228.436 331.143 228.654 331.322 228.799C331.502 228.943 331.949 229.084 332.664 229.221L333.098 229.303C333.633 229.404 334.037 229.607 334.311 229.912C334.588 230.217 334.727 230.613 334.727 231.102C334.727 231.75 334.496 232.258 334.035 232.625C333.574 232.988 332.934 233.17 332.113 233.17C331.789 233.17 331.449 233.135 331.094 233.064C330.738 232.998 330.354 232.896 329.939 232.76V231.646C330.342 231.854 330.727 232.01 331.094 232.115C331.461 232.217 331.809 232.268 332.137 232.268C332.613 232.268 332.982 232.172 333.244 231.98C333.506 231.785 333.637 231.514 333.637 231.166C333.637 230.666 333.158 230.32 332.201 230.129L332.154 230.117L331.75 230.035C331.129 229.914 330.676 229.711 330.391 229.426C330.105 229.137 329.963 228.744 329.963 228.248C329.963 227.619 330.176 227.135 330.602 226.795C331.027 226.451 331.635 226.279 332.424 226.279C332.775 226.279 333.113 226.312 333.438 226.379C333.762 226.441 334.08 226.537 334.393 226.666ZM337.773 226.461H340.533V232.162H342.672V233H337.316V232.162H339.455V227.299H337.773V226.461ZM339.455 223.912H340.533V225.271H339.455V223.912ZM346.762 227.193C346.215 227.193 345.801 227.406 345.52 227.832C345.238 228.258 345.098 228.889 345.098 229.725C345.098 230.557 345.238 231.188 345.52 231.617C345.801 232.043 346.215 232.256 346.762 232.256C347.312 232.256 347.729 232.043 348.01 231.617C348.291 231.188 348.432 230.557 348.432 229.725C348.432 228.889 348.291 228.258 348.01 227.832C347.729 227.406 347.312 227.193 346.762 227.193ZM346.762 226.279C347.672 226.279 348.367 226.574 348.848 227.164C349.332 227.754 349.574 228.607 349.574 229.725C349.574 230.846 349.334 231.701 348.854 232.291C348.373 232.877 347.676 233.17 346.762 233.17C345.852 233.17 345.156 232.877 344.676 232.291C344.195 231.701 343.955 230.846 343.955 229.725C343.955 228.607 344.195 227.754 344.676 227.164C345.156 226.574 345.852 226.279 346.762 226.279ZM356.541 228.934V233H355.457V228.934C355.457 228.344 355.354 227.91 355.146 227.633C354.939 227.355 354.615 227.217 354.174 227.217C353.67 227.217 353.281 227.396 353.008 227.756C352.738 228.111 352.604 228.623 352.604 229.291V233H351.525V226.438H352.604V227.422C352.795 227.047 353.055 226.764 353.383 226.572C353.711 226.377 354.1 226.279 354.549 226.279C355.217 226.279 355.715 226.5 356.043 226.941C356.375 227.379 356.541 228.043 356.541 228.934ZM367.029 232.004H371.049V233H365.734V232.004C366.465 231.234 367.104 230.555 367.65 229.965C368.197 229.375 368.574 228.959 368.781 228.717C369.172 228.24 369.436 227.855 369.572 227.562C369.709 227.266 369.777 226.963 369.777 226.654C369.777 226.166 369.633 225.783 369.344 225.506C369.059 225.229 368.666 225.09 368.166 225.09C367.811 225.09 367.438 225.154 367.047 225.283C366.656 225.412 366.242 225.607 365.805 225.869V224.674C366.207 224.482 366.602 224.338 366.988 224.24C367.379 224.143 367.764 224.094 368.143 224.094C368.998 224.094 369.686 224.322 370.205 224.779C370.729 225.232 370.99 225.828 370.99 226.566C370.99 226.941 370.902 227.316 370.727 227.691C370.555 228.066 370.273 228.48 369.883 228.934C369.664 229.188 369.346 229.539 368.928 229.988C368.514 230.438 367.881 231.109 367.029 232.004Z" fill="black"/>
<rect x="280" y="151" width="120" height="36" rx="18" fill="#D3D3D3"/>
<path d="M310.609 172.004L312.666 164.252H313.891L311.33 173H309.895L307.334 164.252H308.559L310.609 172.004ZM320.793 169.18V169.707H316.123V169.742C316.092 170.637 316.262 171.279 316.633 171.67C317.008 172.061 317.535 172.256 318.215 172.256C318.559 172.256 318.918 172.201 319.293 172.092C319.668 171.982 320.068 171.816 320.494 171.594V172.666C320.084 172.834 319.688 172.959 319.305 173.041C318.926 173.127 318.559 173.17 318.203 173.17C317.184 173.17 316.387 172.865 315.812 172.256C315.238 171.643 314.951 170.799 314.951 169.725C314.951 168.678 315.232 167.842 315.795 167.217C316.357 166.592 317.107 166.279 318.045 166.279C318.881 166.279 319.539 166.562 320.02 167.129C320.504 167.695 320.762 168.379 320.793 169.18ZM319.715 168.863C319.668 168.41 319.502 168.02 319.217 167.691C318.936 167.359 318.529 167.193 317.998 167.193C317.479 167.193 317.051 167.365 316.715 167.709C316.379 168.053 316.195 168.439 316.164 168.869L319.715 168.863ZM328.229 167.791C327.998 167.611 327.764 167.48 327.525 167.398C327.287 167.316 327.025 167.275 326.74 167.275C326.068 167.275 325.555 167.486 325.199 167.908C324.844 168.33 324.666 168.939 324.666 169.736V173H323.582V166.438H324.666V167.721C324.846 167.256 325.121 166.9 325.492 166.654C325.867 166.404 326.311 166.279 326.822 166.279C327.088 166.279 327.336 166.312 327.566 166.379C327.797 166.445 328.018 166.549 328.229 166.689V167.791ZM334.393 166.666V167.721C334.084 167.541 333.773 167.406 333.461 167.316C333.148 167.227 332.83 167.182 332.506 167.182C332.018 167.182 331.652 167.262 331.41 167.422C331.172 167.578 331.053 167.818 331.053 168.143C331.053 168.436 331.143 168.654 331.322 168.799C331.502 168.943 331.949 169.084 332.664 169.221L333.098 169.303C333.633 169.404 334.037 169.607 334.311 169.912C334.588 170.217 334.727 170.613 334.727 171.102C334.727 171.75 334.496 172.258 334.035 172.625C333.574 172.988 332.934 173.17 332.113 173.17C331.789 173.17 331.449 173.135 331.094 173.064C330.738 172.998 330.354 172.896 329.939 172.76V171.646C330.342 171.854 330.727 172.01 331.094 172.115C331.461 172.217 331.809 172.268 332.137 172.268C332.613 172.268 332.982 172.172 333.244 171.98C333.506 171.785 333.637 171.514 333.637 171.166C333.637 170.666 333.158 170.32 332.201 170.129L332.154 170.117L331.75 170.035C331.129 169.914 330.676 169.711 330.391 169.426C330.105 169.137 329.963 168.744 329.963 168.248C329.963 167.619 330.176 167.135 330.602 166.795C331.027 166.451 331.635 166.279 332.424 166.279C332.775 166.279 333.113 166.312 333.438 166.379C333.762 166.441 334.08 166.537 334.393 166.666ZM337.773 166.461H340.533V172.162H342.672V173H337.316V172.162H339.455V167.299H337.773V166.461ZM339.455 163.912H340.533V165.271H339.455V163.912ZM346.762 167.193C346.215 167.193 345.801 167.406 345.52 167.832C345.238 168.258 345.098 168.889 345.098 169.725C345.098 170.557 345.238 171.188 345.52 171.617C345.801 172.043 346.215 172.256 346.762 172.256C347.312 172.256 347.729 172.043 348.01 171.617C348.291 171.188 348.432 170.557 348.432 169.725C348.432 168.889 348.291 168.258 348.01 167.832C347.729 167.406 347.312 167.193 346.762 167.193ZM346.762 166.279C347.672 166.279 348.367 166.574 348.848 167.164C349.332 167.754 349.574 168.607 349.574 169.725C349.574 170.846 349.334 171.701 348.854 172.291C348.373 172.877 347.676 173.17 346.762 173.17C345.852 173.17 345.156 172.877 344.676 172.291C344.195 171.701 343.955 170.846 343.955 169.725C343.955 168.607 344.195 167.754 344.676 167.164C345.156 166.574 345.852 166.279 346.762 166.279ZM356.541 168.934V173H355.457V168.934C355.457 168.344 355.354 167.91 355.146 167.633C354.939 167.355 354.615 167.217 354.174 167.217C353.67 167.217 353.281 167.396 353.008 167.756C352.738 168.111 352.604 168.623 352.604 169.291V173H351.525V166.438H352.604V167.422C352.795 167.047 353.055 166.764 353.383 166.572C353.711 166.377 354.1 166.279 354.549 166.279C355.217 166.279 355.715 166.5 356.043 166.941C356.375 167.379 356.541 168.043 356.541 168.934ZM369.391 168.318C369.965 168.471 370.404 168.742 370.709 169.133C371.014 169.52 371.166 170.004 371.166 170.586C371.166 171.391 370.895 172.023 370.352 172.484C369.812 172.941 369.064 173.17 368.107 173.17C367.705 173.17 367.295 173.133 366.877 173.059C366.459 172.984 366.049 172.877 365.646 172.736V171.559C366.045 171.766 366.438 171.92 366.824 172.021C367.211 172.123 367.596 172.174 367.979 172.174C368.627 172.174 369.125 172.027 369.473 171.734C369.82 171.441 369.994 171.02 369.994 170.469C369.994 169.961 369.82 169.559 369.473 169.262C369.125 168.961 368.654 168.811 368.061 168.811H367.158V167.838H368.061C368.604 167.838 369.027 167.719 369.332 167.48C369.637 167.242 369.789 166.91 369.789 166.484C369.789 166.035 369.646 165.691 369.361 165.453C369.08 165.211 368.678 165.09 368.154 165.09C367.807 165.09 367.447 165.129 367.076 165.207C366.705 165.285 366.316 165.402 365.91 165.559V164.469C366.383 164.344 366.803 164.25 367.17 164.188C367.541 164.125 367.869 164.094 368.154 164.094C369.006 164.094 369.686 164.309 370.193 164.738C370.705 165.164 370.961 165.73 370.961 166.438C370.961 166.918 370.826 167.318 370.557 167.639C370.291 167.959 369.902 168.186 369.391 168.318Z" fill="black"/>
<line x1="340.5" y1="187" x2="340.5" y2="211" stroke="black"/>
<line x1="340.5" y1="247" x2="340.5" y2="271" stroke="black"/>
<rect x="43" y="60" width="155" height="94" fill="#D9D9D9"/>
<path d="M90.2871 87.6895C89.9863 87.8496 89.6777 87.9688 89.3613 88.0469C89.0449 88.1289 88.709 88.1699 88.3535 88.1699C87.2324 88.1699 86.3613 87.7734 85.7402 86.9805C85.123 86.1875 84.8145 85.0723 84.8145 83.6348C84.8145 82.2051 85.125 81.0918 85.7461 80.2949C86.3711 79.4941 87.2402 79.0938 88.3535 79.0938C88.709 79.0938 89.0449 79.1348 89.3613 79.2168C89.6777 79.2949 89.9863 79.4141 90.2871 79.5742V80.7871C89.998 80.5488 89.6875 80.3672 89.3555 80.2422C89.0234 80.1172 88.6895 80.0547 88.3535 80.0547C87.584 80.0547 87.0078 80.3516 86.625 80.9453C86.2422 81.5391 86.0508 82.4355 86.0508 83.6348C86.0508 84.8301 86.2422 85.7246 86.625 86.3184C87.0078 86.9121 87.584 87.209 88.3535 87.209C88.6973 87.209 89.0332 87.1465 89.3613 87.0215C89.6934 86.8965 90.002 86.7148 90.2871 86.4766V87.6895ZM94.8398 82.1934C94.293 82.1934 93.8789 82.4062 93.5977 82.832C93.3164 83.2578 93.1758 83.8887 93.1758 84.7246C93.1758 85.5566 93.3164 86.1875 93.5977 86.6172C93.8789 87.043 94.293 87.2559 94.8398 87.2559C95.3906 87.2559 95.8066 87.043 96.0879 86.6172C96.3691 86.1875 96.5098 85.5566 96.5098 84.7246C96.5098 83.8887 96.3691 83.2578 96.0879 82.832C95.8066 82.4062 95.3906 82.1934 94.8398 82.1934ZM94.8398 81.2793C95.75 81.2793 96.4453 81.5742 96.9258 82.1641C97.4102 82.7539 97.6523 83.6074 97.6523 84.7246C97.6523 85.8457 97.4121 86.7012 96.9316 87.291C96.4512 87.877 95.7539 88.1699 94.8398 88.1699C93.9297 88.1699 93.2344 87.877 92.7539 87.291C92.2734 86.7012 92.0332 85.8457 92.0332 84.7246C92.0332 83.6074 92.2734 82.7539 92.7539 82.1641C93.2344 81.5742 93.9297 81.2793 94.8398 81.2793ZM102.422 82.1055C102.555 81.8242 102.723 81.6172 102.926 81.4844C103.133 81.3477 103.381 81.2793 103.67 81.2793C104.197 81.2793 104.568 81.4844 104.783 81.8945C105.002 82.3008 105.111 83.0684 105.111 84.1973V88H104.127V84.2441C104.127 83.3184 104.074 82.7441 103.969 82.5215C103.867 82.2949 103.68 82.1816 103.406 82.1816C103.094 82.1816 102.879 82.3027 102.762 82.5449C102.648 82.7832 102.592 83.3496 102.592 84.2441V88H101.607V84.2441C101.607 83.3066 101.551 82.7285 101.438 82.5098C101.328 82.291 101.129 82.1816 100.84 82.1816C100.555 82.1816 100.355 82.3027 100.242 82.5449C100.133 82.7832 100.078 83.3496 100.078 84.2441V88H99.0996V81.4375H100.078V82C100.207 81.7656 100.367 81.5879 100.559 81.4668C100.754 81.3418 100.975 81.2793 101.221 81.2793C101.518 81.2793 101.764 81.3477 101.959 81.4844C102.158 81.6211 102.312 81.8281 102.422 82.1055ZM107.889 87.1738V90.4961H106.805V81.4375H107.889V82.2754C108.068 81.9512 108.307 81.7051 108.604 81.5371C108.904 81.3652 109.25 81.2793 109.641 81.2793C110.434 81.2793 111.055 81.5859 111.504 82.1992C111.957 82.8125 112.184 83.6621 112.184 84.748C112.184 85.8145 111.957 86.6523 111.504 87.2617C111.051 87.8672 110.43 88.1699 109.641 88.1699C109.242 88.1699 108.893 88.0859 108.592 87.918C108.295 87.7461 108.061 87.498 107.889 87.1738ZM111.053 84.7246C111.053 83.8887 110.92 83.2578 110.654 82.832C110.393 82.4062 110.002 82.1934 109.482 82.1934C108.959 82.1934 108.562 82.4082 108.293 82.8379C108.023 83.2637 107.889 83.8926 107.889 84.7246C107.889 85.5527 108.023 86.1816 108.293 86.6113C108.562 87.041 108.959 87.2559 109.482 87.2559C110.002 87.2559 110.393 87.043 110.654 86.6172C110.92 86.1914 111.053 85.5605 111.053 84.7246ZM114.064 85.5156V81.4492H115.143V85.5156C115.143 86.1055 115.246 86.5391 115.453 86.8164C115.664 87.0938 115.988 87.2324 116.426 87.2324C116.934 87.2324 117.322 87.0547 117.592 86.6992C117.861 86.3398 117.996 85.8262 117.996 85.1582V81.4492H119.08V88H117.996V87.0156C117.805 87.3945 117.543 87.6816 117.211 87.877C116.883 88.0723 116.498 88.1699 116.057 88.1699C115.385 88.1699 114.885 87.9512 114.557 87.5137C114.229 87.0723 114.064 86.4062 114.064 85.5156ZM123.75 79.5742V81.4375H126.199V82.2754H123.75V85.8379C123.75 86.3223 123.842 86.6602 124.025 86.8516C124.209 87.043 124.529 87.1387 124.986 87.1387H126.199V88H124.881C124.072 88 123.502 87.8379 123.17 87.5137C122.838 87.1895 122.672 86.6309 122.672 85.8379V82.2754H120.92V81.4375H122.672V79.5742H123.75ZM133.945 84.1797V84.707H129.275V84.7422C129.244 85.6367 129.414 86.2793 129.785 86.6699C130.16 87.0605 130.688 87.2559 131.367 87.2559C131.711 87.2559 132.07 87.2012 132.445 87.0918C132.82 86.9824 133.221 86.8164 133.646 86.5938V87.666C133.236 87.834 132.84 87.959 132.457 88.041C132.078 88.127 131.711 88.1699 131.355 88.1699C130.336 88.1699 129.539 87.8652 128.965 87.2559C128.391 86.6426 128.104 85.7988 128.104 84.7246C128.104 83.6777 128.385 82.8418 128.947 82.2168C129.51 81.5918 130.26 81.2793 131.197 81.2793C132.033 81.2793 132.691 81.5625 133.172 82.1289C133.656 82.6953 133.914 83.3789 133.945 84.1797ZM132.867 83.8633C132.82 83.4102 132.654 83.0195 132.369 82.6914C132.088 82.3594 131.682 82.1934 131.15 82.1934C130.631 82.1934 130.203 82.3652 129.867 82.709C129.531 83.0527 129.348 83.4395 129.316 83.8691L132.867 83.8633ZM141.381 82.791C141.15 82.6113 140.916 82.4805 140.678 82.3984C140.439 82.3164 140.178 82.2754 139.893 82.2754C139.221 82.2754 138.707 82.4863 138.352 82.9082C137.996 83.3301 137.818 83.9395 137.818 84.7363V88H136.734V81.4375H137.818V82.7207C137.998 82.2559 138.273 81.9004 138.645 81.6543C139.02 81.4043 139.463 81.2793 139.975 81.2793C140.24 81.2793 140.488 81.3125 140.719 81.3789C140.949 81.4453 141.17 81.5488 141.381 81.6895V82.791ZM152.684 80.2949L151.436 84.7715H153.932L152.684 80.2949ZM151.969 79.252H153.404L156.082 88H154.857L154.213 85.7207H151.148L150.516 88H149.291L151.969 79.252Z" fill="black"/>
<rect x="61" y="99" width="120" height="36" rx="18" fill="#48D1CC"/>
<path d="M103.365 112.252H108.516V113.248H104.555V115.592H108.146V116.588H104.555V121H103.365V112.252ZM111.082 114.461H113.842V120.162H115.98V121H110.625V120.162H112.764V115.299H111.082V114.461ZM112.764 111.912H113.842V113.271H112.764V111.912ZM120.674 118.627C120.674 119.111 120.762 119.477 120.938 119.723C121.117 119.969 121.381 120.092 121.729 120.092H122.988V121H121.623C120.979 121 120.479 120.795 120.123 120.385C119.771 119.971 119.596 119.385 119.596 118.627V112.691H117.867V111.848H120.674V118.627ZM130.254 117.18V117.707H125.584V117.742C125.553 118.637 125.723 119.279 126.094 119.67C126.469 120.061 126.996 120.256 127.676 120.256C128.02 120.256 128.379 120.201 128.754 120.092C129.129 119.982 129.529 119.816 129.955 119.594V120.666C129.545 120.834 129.148 120.959 128.766 121.041C128.387 121.127 128.02 121.17 127.664 121.17C126.645 121.17 125.848 120.865 125.273 120.256C124.699 119.643 124.412 118.799 124.412 117.725C124.412 116.678 124.693 115.842 125.256 115.217C125.818 114.592 126.568 114.279 127.506 114.279C128.342 114.279 129 114.562 129.48 115.129C129.965 115.695 130.223 116.379 130.254 117.18ZM129.176 116.863C129.129 116.41 128.963 116.02 128.678 115.691C128.396 115.359 127.99 115.193 127.459 115.193C126.939 115.193 126.512 115.365 126.176 115.709C125.84 116.053 125.656 116.439 125.625 116.869L129.176 116.863ZM136.623 114.666V115.721C136.314 115.541 136.004 115.406 135.691 115.316C135.379 115.227 135.061 115.182 134.736 115.182C134.248 115.182 133.883 115.262 133.641 115.422C133.402 115.578 133.283 115.818 133.283 116.143C133.283 116.436 133.373 116.654 133.553 116.799C133.732 116.943 134.18 117.084 134.895 117.221L135.328 117.303C135.863 117.404 136.268 117.607 136.541 117.912C136.818 118.217 136.957 118.613 136.957 119.102C136.957 119.75 136.727 120.258 136.266 120.625C135.805 120.988 135.164 121.17 134.344 121.17C134.02 121.17 133.68 121.135 133.324 121.064C132.969 120.998 132.584 120.896 132.17 120.76V119.646C132.572 119.854 132.957 120.01 133.324 120.115C133.691 120.217 134.039 120.268 134.367 120.268C134.844 120.268 135.213 120.172 135.475 119.98C135.736 119.785 135.867 119.514 135.867 119.166C135.867 118.666 135.389 118.32 134.432 118.129L134.385 118.117L133.98 118.035C133.359 117.914 132.906 117.711 132.621 117.426C132.336 117.137 132.193 116.744 132.193 116.248C132.193 115.619 132.406 115.135 132.832 114.795C133.258 114.451 133.865 114.279 134.654 114.279C135.006 114.279 135.344 114.312 135.668 114.379C135.992 114.441 136.311 114.537 136.623 114.666Z" fill="black"/>
<rect x="43" y="236" width="155" height="94" fill="#D9D9D9"/>
<path d="M90.2871 263.689C89.9863 263.85 89.6777 263.969 89.3613 264.047C89.0449 264.129 88.709 264.17 88.3535 264.17C87.2324 264.17 86.3613 263.773 85.7402 262.98C85.123 262.188 84.8145 261.072 84.8145 259.635C84.8145 258.205 85.125 257.092 85.7461 256.295C86.3711 255.494 87.2402 255.094 88.3535 255.094C88.709 255.094 89.0449 255.135 89.3613 255.217C89.6777 255.295 89.9863 255.414 90.2871 255.574V256.787C89.998 256.549 89.6875 256.367 89.3555 256.242C89.0234 256.117 88.6895 256.055 88.3535 256.055C87.584 256.055 87.0078 256.352 86.625 256.945C86.2422 257.539 86.0508 258.436 86.0508 259.635C86.0508 260.83 86.2422 261.725 86.625 262.318C87.0078 262.912 87.584 263.209 88.3535 263.209C88.6973 263.209 89.0332 263.146 89.3613 263.021C89.6934 262.896 90.002 262.715 90.2871 262.477V263.689ZM94.8398 258.193C94.293 258.193 93.8789 258.406 93.5977 258.832C93.3164 259.258 93.1758 259.889 93.1758 260.725C93.1758 261.557 93.3164 262.188 93.5977 262.617C93.8789 263.043 94.293 263.256 94.8398 263.256C95.3906 263.256 95.8066 263.043 96.0879 262.617C96.3691 262.188 96.5098 261.557 96.5098 260.725C96.5098 259.889 96.3691 259.258 96.0879 258.832C95.8066 258.406 95.3906 258.193 94.8398 258.193ZM94.8398 257.279C95.75 257.279 96.4453 257.574 96.9258 258.164C97.4102 258.754 97.6523 259.607 97.6523 260.725C97.6523 261.846 97.4121 262.701 96.9316 263.291C96.4512 263.877 95.7539 264.17 94.8398 264.17C93.9297 264.17 93.2344 263.877 92.7539 263.291C92.2734 262.701 92.0332 261.846 92.0332 260.725C92.0332 259.607 92.2734 258.754 92.7539 258.164C93.2344 257.574 93.9297 257.279 94.8398 257.279ZM102.422 258.105C102.555 257.824 102.723 257.617 102.926 257.484C103.133 257.348 103.381 257.279 103.67 257.279C104.197 257.279 104.568 257.484 104.783 257.895C105.002 258.301 105.111 259.068 105.111 260.197V264H104.127V260.244C104.127 259.318 104.074 258.744 103.969 258.521C103.867 258.295 103.68 258.182 103.406 258.182C103.094 258.182 102.879 258.303 102.762 258.545C102.648 258.783 102.592 259.35 102.592 260.244V264H101.607V260.244C101.607 259.307 101.551 258.729 101.438 258.51C101.328 258.291 101.129 258.182 100.84 258.182C100.555 258.182 100.355 258.303 100.242 258.545C100.133 258.783 100.078 259.35 100.078 260.244V264H99.0996V257.438H100.078V258C100.207 257.766 100.367 257.588 100.559 257.467C100.754 257.342 100.975 257.279 101.221 257.279C101.518 257.279 101.764 257.348 101.959 257.484C102.158 257.621 102.312 257.828 102.422 258.105ZM107.889 263.174V266.496H106.805V257.438H107.889V258.275C108.068 257.951 108.307 257.705 108.604 257.537C108.904 257.365 109.25 257.279 109.641 257.279C110.434 257.279 111.055 257.586 111.504 258.199C111.957 258.812 112.184 259.662 112.184 260.748C112.184 261.814 111.957 262.652 111.504 263.262C111.051 263.867 110.43 264.17 109.641 264.17C109.242 264.17 108.893 264.086 108.592 263.918C108.295 263.746 108.061 263.498 107.889 263.174ZM111.053 260.725C111.053 259.889 110.92 259.258 110.654 258.832C110.393 258.406 110.002 258.193 109.482 258.193C108.959 258.193 108.562 258.408 108.293 258.838C108.023 259.264 107.889 259.893 107.889 260.725C107.889 261.553 108.023 262.182 108.293 262.611C108.562 263.041 108.959 263.256 109.482 263.256C110.002 263.256 110.393 263.043 110.654 262.617C110.92 262.191 111.053 261.561 111.053 260.725ZM114.064 261.516V257.449H115.143V261.516C115.143 262.105 115.246 262.539 115.453 262.816C115.664 263.094 115.988 263.232 116.426 263.232C116.934 263.232 117.322 263.055 117.592 262.699C117.861 262.34 117.996 261.826 117.996 261.158V257.449H119.08V264H117.996V263.016C117.805 263.395 117.543 263.682 117.211 263.877C116.883 264.072 116.498 264.17 116.057 264.17C115.385 264.17 114.885 263.951 114.557 263.514C114.229 263.072 114.064 262.406 114.064 261.516ZM123.75 255.574V257.438H126.199V258.275H123.75V261.838C123.75 262.322 123.842 262.66 124.025 262.852C124.209 263.043 124.529 263.139 124.986 263.139H126.199V264H124.881C124.072 264 123.502 263.838 123.17 263.514C122.838 263.189 122.672 262.631 122.672 261.838V258.275H120.92V257.438H122.672V255.574H123.75ZM133.945 260.18V260.707H129.275V260.742C129.244 261.637 129.414 262.279 129.785 262.67C130.16 263.061 130.688 263.256 131.367 263.256C131.711 263.256 132.07 263.201 132.445 263.092C132.82 262.982 133.221 262.816 133.646 262.594V263.666C133.236 263.834 132.84 263.959 132.457 264.041C132.078 264.127 131.711 264.17 131.355 264.17C130.336 264.17 129.539 263.865 128.965 263.256C128.391 262.643 128.104 261.799 128.104 260.725C128.104 259.678 128.385 258.842 128.947 258.217C129.51 257.592 130.26 257.279 131.197 257.279C132.033 257.279 132.691 257.562 133.172 258.129C133.656 258.695 133.914 259.379 133.945 260.18ZM132.867 259.863C132.82 259.41 132.654 259.02 132.369 258.691C132.088 258.359 131.682 258.193 131.15 258.193C130.631 258.193 130.203 258.365 129.867 258.709C129.531 259.053 129.348 259.439 129.316 259.869L132.867 259.863ZM141.381 258.791C141.15 258.611 140.916 258.48 140.678 258.398C140.439 258.316 140.178 258.275 139.893 258.275C139.221 258.275 138.707 258.486 138.352 258.908C137.996 259.33 137.818 259.939 137.818 260.736V264H136.734V257.438H137.818V258.721C137.998 258.256 138.273 257.9 138.645 257.654C139.02 257.404 139.463 257.279 139.975 257.279C140.24 257.279 140.488 257.312 140.719 257.379C140.949 257.445 141.17 257.549 141.381 257.689V258.791ZM151.236 259.588V263.027H152.637C153.324 263.027 153.814 262.908 154.107 262.67C154.4 262.428 154.547 262.031 154.547 261.48C154.547 260.754 154.393 260.258 154.084 259.992C153.775 259.723 153.293 259.588 152.637 259.588H151.236ZM151.236 256.225V258.627H152.613C153.184 258.627 153.596 258.518 153.85 258.299C154.107 258.08 154.236 257.805 154.236 257.473C154.236 257.031 154.109 256.713 153.855 256.518C153.605 256.322 153.191 256.225 152.613 256.225H151.236ZM150.047 255.252H152.637C153.531 255.252 154.221 255.445 154.705 255.832C155.189 256.219 155.432 256.766 155.432 257.473C155.432 257.852 155.303 258.195 155.045 258.504C154.791 258.812 154.408 259.006 153.896 259.084C154.471 259.17 154.92 259.416 155.244 259.822C155.572 260.225 155.736 260.816 155.736 261.598C155.736 262.391 155.477 262.99 154.957 263.396C154.438 263.799 153.664 264 152.637 264H150.047V255.252Z" fill="black"/>
<rect x="61" y="275" width="120" height="36" rx="18" fill="#48D1CC"/>
<path d="M103.365 288.252H108.516V289.248H104.555V291.592H108.146V292.588H104.555V297H103.365V288.252ZM111.082 290.461H113.842V296.162H115.98V297H110.625V296.162H112.764V291.299H111.082V290.461ZM112.764 287.912H113.842V289.271H112.764V287.912ZM120.674 294.627C120.674 295.111 120.762 295.477 120.938 295.723C121.117 295.969 121.381 296.092 121.729 296.092H122.988V297H121.623C120.979 297 120.479 296.795 120.123 296.385C119.771 295.971 119.596 295.385 119.596 294.627V288.691H117.867V287.848H120.674V294.627ZM130.254 293.18V293.707H125.584V293.742C125.553 294.637 125.723 295.279 126.094 295.67C126.469 296.061 126.996 296.256 127.676 296.256C128.02 296.256 128.379 296.201 128.754 296.092C129.129 295.982 129.529 295.816 129.955 295.594V296.666C129.545 296.834 129.148 296.959 128.766 297.041C128.387 297.127 128.02 297.17 127.664 297.17C126.645 297.17 125.848 296.865 125.273 296.256C124.699 295.643 124.412 294.799 124.412 293.725C124.412 292.678 124.693 291.842 125.256 291.217C125.818 290.592 126.568 290.279 127.506 290.279C128.342 290.279 129 290.562 129.48 291.129C129.965 291.695 130.223 292.379 130.254 293.18ZM129.176 292.863C129.129 292.41 128.963 292.02 128.678 291.691C128.396 291.359 127.99 291.193 127.459 291.193C126.939 291.193 126.512 291.365 126.176 291.709C125.84 292.053 125.656 292.439 125.625 292.869L129.176 292.863ZM136.623 290.666V291.721C136.314 291.541 136.004 291.406 135.691 291.316C135.379 291.227 135.061 291.182 134.736 291.182C134.248 291.182 133.883 291.262 133.641 291.422C133.402 291.578 133.283 291.818 133.283 292.143C133.283 292.436 133.373 292.654 133.553 292.799C133.732 292.943 134.18 293.084 134.895 293.221L135.328 293.303C135.863 293.404 136.268 293.607 136.541 293.912C136.818 294.217 136.957 294.613 136.957 295.102C136.957 295.75 136.727 296.258 136.266 296.625C135.805 296.988 135.164 297.17 134.344 297.17C134.02 297.17 133.68 297.135 133.324 297.064C132.969 296.998 132.584 296.896 132.17 296.76V295.646C132.572 295.854 132.957 296.01 133.324 296.115C133.691 296.217 134.039 296.268 134.367 296.268C134.844 296.268 135.213 296.172 135.475 295.98C135.736 295.785 135.867 295.514 135.867 295.166C135.867 294.666 135.389 294.32 134.432 294.129L134.385 294.117L133.98 294.035C133.359 293.914 132.906 293.711 132.621 293.426C132.336 293.137 132.193 292.744 132.193 292.248C132.193 291.619 132.406 291.135 132.832 290.795C133.258 290.451 133.865 290.279 134.654 290.279C135.006 290.279 135.344 290.312 135.668 290.379C135.992 290.441 136.311 290.537 136.623 290.666Z" fill="black"/>
<path d="M180.52 116.123C180.035 116.388 179.858 116.996 180.123 117.48L184.446 125.374C184.711 125.859 185.319 126.036 185.803 125.771C186.288 125.506 186.465 124.898 186.2 124.414L182.357 117.397L189.374 113.554C189.859 113.289 190.036 112.681 189.771 112.197C189.506 111.712 188.898 111.535 188.414 111.8L180.52 116.123ZM246.281 135.04L181.281 116.04L180.719 117.96L245.719 136.96L246.281 135.04Z" fill="black"/>
<path d="M180.081 292.606C179.863 293.114 180.098 293.702 180.606 293.919L188.878 297.464C189.386 297.682 189.974 297.447 190.191 296.939C190.409 296.432 190.174 295.844 189.666 295.626L182.313 292.475L185.464 285.122C185.682 284.614 185.447 284.026 184.939 283.809C184.432 283.591 183.844 283.826 183.626 284.334L180.081 292.606ZM245.629 266.072L180.629 292.072L181.371 293.928L246.371 267.928L245.629 266.072Z" fill="black"/>
</svg>
