<svg width="472" height="385" viewBox="0 0 472 385" fill="none" xmlns="http://www.w3.org/2000/svg">
<rect x="81" width="391" height="385" fill="#D9D9D9"/>
<rect x="262.5" y="72.5" width="185" height="263" fill="white" stroke="#808080" stroke-width="3"/>
<path d="M300.609 107.004L302.666 99.252H303.891L301.33 108H299.895L297.334 99.252H298.559L300.609 107.004ZM310.793 104.18V104.707H306.123V104.742C306.092 105.637 306.262 106.279 306.633 106.67C307.008 107.061 307.535 107.256 308.215 107.256C308.559 107.256 308.918 107.201 309.293 107.092C309.668 106.982 310.068 106.816 310.494 106.594V107.666C310.084 107.834 309.688 107.959 309.305 108.041C308.926 108.127 308.559 108.17 308.203 108.17C307.184 108.17 306.387 107.865 305.812 107.256C305.238 106.643 304.951 105.799 304.951 104.725C304.951 103.678 305.232 102.842 305.795 102.217C306.357 101.592 307.107 101.279 308.045 101.279C308.881 101.279 309.539 101.562 310.02 102.129C310.504 102.695 310.762 103.379 310.793 104.18ZM309.715 103.863C309.668 103.41 309.502 103.02 309.217 102.691C308.936 102.359 308.529 102.193 307.998 102.193C307.479 102.193 307.051 102.365 306.715 102.709C306.379 103.053 306.195 103.439 306.164 103.869L309.715 103.863ZM318.229 102.791C317.998 102.611 317.764 102.48 317.525 102.398C317.287 102.316 317.025 102.275 316.74 102.275C316.068 102.275 315.555 102.486 315.199 102.908C314.844 103.33 314.666 103.939 314.666 104.736V108H313.582V101.438H314.666V102.721C314.846 102.256 315.121 101.9 315.492 101.654C315.867 101.404 316.311 101.279 316.822 101.279C317.088 101.279 317.336 101.312 317.566 101.379C317.797 101.445 318.018 101.549 318.229 101.689V102.791ZM324.393 101.666V102.721C324.084 102.541 323.773 102.406 323.461 102.316C323.148 102.227 322.83 102.182 322.506 102.182C322.018 102.182 321.652 102.262 321.41 102.422C321.172 102.578 321.053 102.818 321.053 103.143C321.053 103.436 321.143 103.654 321.322 103.799C321.502 103.943 321.949 104.084 322.664 104.221L323.098 104.303C323.633 104.404 324.037 104.607 324.311 104.912C324.588 105.217 324.727 105.613 324.727 106.102C324.727 106.75 324.496 107.258 324.035 107.625C323.574 107.988 322.934 108.17 322.113 108.17C321.789 108.17 321.449 108.135 321.094 108.064C320.738 107.998 320.354 107.896 319.939 107.76V106.646C320.342 106.854 320.727 107.01 321.094 107.115C321.461 107.217 321.809 107.268 322.137 107.268C322.613 107.268 322.982 107.172 323.244 106.98C323.506 106.785 323.637 106.514 323.637 106.166C323.637 105.666 323.158 105.32 322.201 105.129L322.154 105.117L321.75 105.035C321.129 104.914 320.676 104.711 320.391 104.426C320.105 104.137 319.963 103.744 319.963 103.248C319.963 102.619 320.176 102.135 320.602 101.795C321.027 101.451 321.635 101.279 322.424 101.279C322.775 101.279 323.113 101.312 323.438 101.379C323.762 101.441 324.08 101.537 324.393 101.666ZM327.773 101.461H330.533V107.162H332.672V108H327.316V107.162H329.455V102.299H327.773V101.461ZM329.455 98.9121H330.533V100.271H329.455V98.9121ZM336.762 102.193C336.215 102.193 335.801 102.406 335.52 102.832C335.238 103.258 335.098 103.889 335.098 104.725C335.098 105.557 335.238 106.188 335.52 106.617C335.801 107.043 336.215 107.256 336.762 107.256C337.312 107.256 337.729 107.043 338.01 106.617C338.291 106.188 338.432 105.557 338.432 104.725C338.432 103.889 338.291 103.258 338.01 102.832C337.729 102.406 337.312 102.193 336.762 102.193ZM336.762 101.279C337.672 101.279 338.367 101.574 338.848 102.164C339.332 102.754 339.574 103.607 339.574 104.725C339.574 105.846 339.334 106.701 338.854 107.291C338.373 107.877 337.676 108.17 336.762 108.17C335.852 108.17 335.156 107.877 334.676 107.291C334.195 106.701 333.955 105.846 333.955 104.725C333.955 103.607 334.195 102.754 334.676 102.164C335.156 101.574 335.852 101.279 336.762 101.279ZM346.541 103.934V108H345.457V103.934C345.457 103.344 345.354 102.91 345.146 102.633C344.939 102.355 344.615 102.217 344.174 102.217C343.67 102.217 343.281 102.396 343.008 102.756C342.738 103.111 342.604 103.623 342.604 104.291V108H341.525V101.438H342.604V102.422C342.795 102.047 343.055 101.764 343.383 101.572C343.711 101.377 344.1 101.279 344.549 101.279C345.217 101.279 345.715 101.5 346.043 101.941C346.375 102.379 346.541 103.043 346.541 103.934ZM357.398 107.027C358.395 107.027 359.09 106.783 359.484 106.295C359.879 105.803 360.076 104.916 360.076 103.635C360.076 102.342 359.879 101.451 359.484 100.963C359.094 100.471 358.398 100.225 357.398 100.225H356.836V107.027H357.398ZM357.422 99.252C358.758 99.252 359.742 99.6074 360.375 100.318C361.008 101.029 361.324 102.135 361.324 103.635C361.324 105.127 361.008 106.229 360.375 106.939C359.742 107.646 358.758 108 357.422 108H355.646V99.252H357.422ZM366.188 104.701H365.83C365.201 104.701 364.727 104.812 364.406 105.035C364.09 105.254 363.932 105.582 363.932 106.02C363.932 106.414 364.051 106.721 364.289 106.939C364.527 107.158 364.857 107.268 365.279 107.268C365.873 107.268 366.34 107.062 366.68 106.652C367.02 106.238 367.191 105.668 367.195 104.941V104.701H366.188ZM368.279 104.256V108H367.195V107.027C366.965 107.418 366.674 107.707 366.322 107.895C365.975 108.078 365.551 108.17 365.051 108.17C364.383 108.17 363.85 107.982 363.451 107.607C363.053 107.229 362.854 106.723 362.854 106.09C362.854 105.359 363.098 104.805 363.586 104.426C364.078 104.047 364.799 103.857 365.748 103.857H367.195V103.688C367.191 103.164 367.059 102.785 366.797 102.551C366.535 102.312 366.117 102.193 365.543 102.193C365.176 102.193 364.805 102.246 364.43 102.352C364.055 102.457 363.689 102.611 363.334 102.814V101.736C363.732 101.584 364.113 101.471 364.477 101.396C364.844 101.318 365.199 101.279 365.543 101.279C366.086 101.279 366.549 101.359 366.932 101.52C367.318 101.68 367.631 101.92 367.869 102.24C368.018 102.436 368.123 102.678 368.186 102.967C368.248 103.252 368.279 103.682 368.279 104.256ZM372.902 99.5742V101.438H375.352V102.275H372.902V105.838C372.902 106.322 372.994 106.66 373.178 106.852C373.361 107.043 373.682 107.139 374.139 107.139H375.352V108H374.033C373.225 108 372.654 107.838 372.322 107.514C371.99 107.189 371.824 106.631 371.824 105.838V102.275H370.072V101.438H371.824V99.5742H372.902ZM380.648 104.701H380.291C379.662 104.701 379.188 104.812 378.867 105.035C378.551 105.254 378.393 105.582 378.393 106.02C378.393 106.414 378.512 106.721 378.75 106.939C378.988 107.158 379.318 107.268 379.74 107.268C380.334 107.268 380.801 107.062 381.141 106.652C381.48 106.238 381.652 105.668 381.656 104.941V104.701H380.648ZM382.74 104.256V108H381.656V107.027C381.426 107.418 381.135 107.707 380.783 107.895C380.436 108.078 380.012 108.17 379.512 108.17C378.844 108.17 378.311 107.982 377.912 107.607C377.514 107.229 377.314 106.723 377.314 106.09C377.314 105.359 377.559 104.805 378.047 104.426C378.539 104.047 379.26 103.857 380.209 103.857H381.656V103.688C381.652 103.164 381.52 102.785 381.258 102.551C380.996 102.312 380.578 102.193 380.004 102.193C379.637 102.193 379.266 102.246 378.891 102.352C378.516 102.457 378.15 102.611 377.795 102.814V101.736C378.193 101.584 378.574 101.471 378.938 101.396C379.305 101.318 379.66 101.279 380.004 101.279C380.547 101.279 381.01 101.359 381.393 101.52C381.779 101.68 382.092 101.92 382.33 102.24C382.479 102.436 382.584 102.678 382.646 102.967C382.709 103.252 382.74 103.682 382.74 104.256ZM389.145 104.725C389.145 103.889 389.012 103.258 388.746 102.832C388.48 102.406 388.088 102.193 387.568 102.193C387.045 102.193 386.648 102.408 386.379 102.838C386.109 103.264 385.975 103.893 385.975 104.725C385.975 105.553 386.109 106.182 386.379 106.611C386.648 107.041 387.045 107.256 387.568 107.256C388.088 107.256 388.48 107.043 388.746 106.617C389.012 106.191 389.145 105.561 389.145 104.725ZM385.975 102.275C386.146 101.955 386.383 101.709 386.684 101.537C386.988 101.365 387.34 101.279 387.738 101.279C388.527 101.279 389.148 101.584 389.602 102.193C390.055 102.799 390.281 103.635 390.281 104.701C390.281 105.783 390.053 106.633 389.596 107.25C389.143 107.863 388.52 108.17 387.727 108.17C387.336 108.17 386.99 108.086 386.689 107.918C386.393 107.746 386.154 107.498 385.975 107.174V108H384.896V98.8828H385.975V102.275ZM395.109 104.701H394.752C394.123 104.701 393.648 104.812 393.328 105.035C393.012 105.254 392.854 105.582 392.854 106.02C392.854 106.414 392.973 106.721 393.211 106.939C393.449 107.158 393.779 107.268 394.201 107.268C394.795 107.268 395.262 107.062 395.602 106.652C395.941 106.238 396.113 105.668 396.117 104.941V104.701H395.109ZM397.201 104.256V108H396.117V107.027C395.887 107.418 395.596 107.707 395.244 107.895C394.896 108.078 394.473 108.17 393.973 108.17C393.305 108.17 392.771 107.982 392.373 107.607C391.975 107.229 391.775 106.723 391.775 106.09C391.775 105.359 392.02 104.805 392.508 104.426C393 104.047 393.721 103.857 394.67 103.857H396.117V103.688C396.113 103.164 395.98 102.785 395.719 102.551C395.457 102.312 395.039 102.193 394.465 102.193C394.098 102.193 393.727 102.246 393.352 102.352C392.977 102.457 392.611 102.611 392.256 102.814V101.736C392.654 101.584 393.035 101.471 393.398 101.396C393.766 101.318 394.121 101.279 394.465 101.279C395.008 101.279 395.471 101.359 395.854 101.52C396.24 101.68 396.553 101.92 396.791 102.24C396.939 102.436 397.045 102.678 397.107 102.967C397.17 103.252 397.201 103.682 397.201 104.256ZM403.928 101.666V102.721C403.619 102.541 403.309 102.406 402.996 102.316C402.684 102.227 402.365 102.182 402.041 102.182C401.553 102.182 401.188 102.262 400.945 102.422C400.707 102.578 400.588 102.818 400.588 103.143C400.588 103.436 400.678 103.654 400.857 103.799C401.037 103.943 401.484 104.084 402.199 104.221L402.633 104.303C403.168 104.404 403.572 104.607 403.846 104.912C404.123 105.217 404.262 105.613 404.262 106.102C404.262 106.75 404.031 107.258 403.57 107.625C403.109 107.988 402.469 108.17 401.648 108.17C401.324 108.17 400.984 108.135 400.629 108.064C400.273 107.998 399.889 107.896 399.475 107.76V106.646C399.877 106.854 400.262 107.01 400.629 107.115C400.996 107.217 401.344 107.268 401.672 107.268C402.148 107.268 402.518 107.172 402.779 106.98C403.041 106.785 403.172 106.514 403.172 106.166C403.172 105.666 402.693 105.32 401.736 105.129L401.689 105.117L401.285 105.035C400.664 104.914 400.211 104.711 399.926 104.426C399.641 104.137 399.498 103.744 399.498 103.248C399.498 102.619 399.711 102.135 400.137 101.795C400.562 101.451 401.17 101.279 401.959 101.279C402.311 101.279 402.648 101.312 402.973 101.379C403.297 101.441 403.615 101.537 403.928 101.666ZM412.02 104.18V104.707H407.35V104.742C407.318 105.637 407.488 106.279 407.859 106.67C408.234 107.061 408.762 107.256 409.441 107.256C409.785 107.256 410.145 107.201 410.52 107.092C410.895 106.982 411.295 106.816 411.721 106.594V107.666C411.311 107.834 410.914 107.959 410.531 108.041C410.152 108.127 409.785 108.17 409.43 108.17C408.41 108.17 407.613 107.865 407.039 107.256C406.465 106.643 406.178 105.799 406.178 104.725C406.178 103.678 406.459 102.842 407.021 102.217C407.584 101.592 408.334 101.279 409.271 101.279C410.107 101.279 410.766 101.562 411.246 102.129C411.73 102.695 411.988 103.379 412.02 104.18ZM410.941 103.863C410.895 103.41 410.729 103.02 410.443 102.691C410.162 102.359 409.756 102.193 409.225 102.193C408.705 102.193 408.277 102.365 407.941 102.709C407.605 103.053 407.422 103.439 407.391 103.869L410.941 103.863Z" fill="black"/>
<rect x="295" y="263" width="120" height="36" rx="18" fill="#D3D3D3"/>
<path d="M325.609 284.004L327.666 276.252H328.891L326.33 285H324.895L322.334 276.252H323.559L325.609 284.004ZM335.793 281.18V281.707H331.123V281.742C331.092 282.637 331.262 283.279 331.633 283.67C332.008 284.061 332.535 284.256 333.215 284.256C333.559 284.256 333.918 284.201 334.293 284.092C334.668 283.982 335.068 283.816 335.494 283.594V284.666C335.084 284.834 334.688 284.959 334.305 285.041C333.926 285.127 333.559 285.17 333.203 285.17C332.184 285.17 331.387 284.865 330.812 284.256C330.238 283.643 329.951 282.799 329.951 281.725C329.951 280.678 330.232 279.842 330.795 279.217C331.357 278.592 332.107 278.279 333.045 278.279C333.881 278.279 334.539 278.562 335.02 279.129C335.504 279.695 335.762 280.379 335.793 281.18ZM334.715 280.863C334.668 280.41 334.502 280.02 334.217 279.691C333.936 279.359 333.529 279.193 332.998 279.193C332.479 279.193 332.051 279.365 331.715 279.709C331.379 280.053 331.195 280.439 331.164 280.869L334.715 280.863ZM343.229 279.791C342.998 279.611 342.764 279.48 342.525 279.398C342.287 279.316 342.025 279.275 341.74 279.275C341.068 279.275 340.555 279.486 340.199 279.908C339.844 280.33 339.666 280.939 339.666 281.736V285H338.582V278.438H339.666V279.721C339.846 279.256 340.121 278.9 340.492 278.654C340.867 278.404 341.311 278.279 341.822 278.279C342.088 278.279 342.336 278.312 342.566 278.379C342.797 278.445 343.018 278.549 343.229 278.689V279.791ZM349.393 278.666V279.721C349.084 279.541 348.773 279.406 348.461 279.316C348.148 279.227 347.83 279.182 347.506 279.182C347.018 279.182 346.652 279.262 346.41 279.422C346.172 279.578 346.053 279.818 346.053 280.143C346.053 280.436 346.143 280.654 346.322 280.799C346.502 280.943 346.949 281.084 347.664 281.221L348.098 281.303C348.633 281.404 349.037 281.607 349.311 281.912C349.588 282.217 349.727 282.613 349.727 283.102C349.727 283.75 349.496 284.258 349.035 284.625C348.574 284.988 347.934 285.17 347.113 285.17C346.789 285.17 346.449 285.135 346.094 285.064C345.738 284.998 345.354 284.896 344.939 284.76V283.646C345.342 283.854 345.727 284.01 346.094 284.115C346.461 284.217 346.809 284.268 347.137 284.268C347.613 284.268 347.982 284.172 348.244 283.98C348.506 283.785 348.637 283.514 348.637 283.166C348.637 282.666 348.158 282.32 347.201 282.129L347.154 282.117L346.75 282.035C346.129 281.914 345.676 281.711 345.391 281.426C345.105 281.137 344.963 280.744 344.963 280.248C344.963 279.619 345.176 279.135 345.602 278.795C346.027 278.451 346.635 278.279 347.424 278.279C347.775 278.279 348.113 278.312 348.438 278.379C348.762 278.441 349.08 278.537 349.393 278.666ZM352.773 278.461H355.533V284.162H357.672V285H352.316V284.162H354.455V279.299H352.773V278.461ZM354.455 275.912H355.533V277.271H354.455V275.912ZM361.762 279.193C361.215 279.193 360.801 279.406 360.52 279.832C360.238 280.258 360.098 280.889 360.098 281.725C360.098 282.557 360.238 283.188 360.52 283.617C360.801 284.043 361.215 284.256 361.762 284.256C362.312 284.256 362.729 284.043 363.01 283.617C363.291 283.188 363.432 282.557 363.432 281.725C363.432 280.889 363.291 280.258 363.01 279.832C362.729 279.406 362.312 279.193 361.762 279.193ZM361.762 278.279C362.672 278.279 363.367 278.574 363.848 279.164C364.332 279.754 364.574 280.607 364.574 281.725C364.574 282.846 364.334 283.701 363.854 284.291C363.373 284.877 362.676 285.17 361.762 285.17C360.852 285.17 360.156 284.877 359.676 284.291C359.195 283.701 358.955 282.846 358.955 281.725C358.955 280.607 359.195 279.754 359.676 279.164C360.156 278.574 360.852 278.279 361.762 278.279ZM371.541 280.934V285H370.457V280.934C370.457 280.344 370.354 279.91 370.146 279.633C369.939 279.355 369.615 279.217 369.174 279.217C368.67 279.217 368.281 279.396 368.008 279.756C367.738 280.111 367.604 280.623 367.604 281.291V285H366.525V278.438H367.604V279.422C367.795 279.047 368.055 278.764 368.383 278.572C368.711 278.377 369.1 278.279 369.549 278.279C370.217 278.279 370.715 278.5 371.043 278.941C371.375 279.379 371.541 280.043 371.541 280.934ZM381.426 284.01H383.266V277.4L381.062 278.461V277.324L383.254 276.281H384.438V284.01H386.254V285H381.426V284.01Z" fill="black"/>
<rect x="295" y="203" width="120" height="36" rx="18" fill="#D3D3D3"/>
<path d="M325.609 224.004L327.666 216.252H328.891L326.33 225H324.895L322.334 216.252H323.559L325.609 224.004ZM335.793 221.18V221.707H331.123V221.742C331.092 222.637 331.262 223.279 331.633 223.67C332.008 224.061 332.535 224.256 333.215 224.256C333.559 224.256 333.918 224.201 334.293 224.092C334.668 223.982 335.068 223.816 335.494 223.594V224.666C335.084 224.834 334.688 224.959 334.305 225.041C333.926 225.127 333.559 225.17 333.203 225.17C332.184 225.17 331.387 224.865 330.812 224.256C330.238 223.643 329.951 222.799 329.951 221.725C329.951 220.678 330.232 219.842 330.795 219.217C331.357 218.592 332.107 218.279 333.045 218.279C333.881 218.279 334.539 218.562 335.02 219.129C335.504 219.695 335.762 220.379 335.793 221.18ZM334.715 220.863C334.668 220.41 334.502 220.02 334.217 219.691C333.936 219.359 333.529 219.193 332.998 219.193C332.479 219.193 332.051 219.365 331.715 219.709C331.379 220.053 331.195 220.439 331.164 220.869L334.715 220.863ZM343.229 219.791C342.998 219.611 342.764 219.48 342.525 219.398C342.287 219.316 342.025 219.275 341.74 219.275C341.068 219.275 340.555 219.486 340.199 219.908C339.844 220.33 339.666 220.939 339.666 221.736V225H338.582V218.438H339.666V219.721C339.846 219.256 340.121 218.9 340.492 218.654C340.867 218.404 341.311 218.279 341.822 218.279C342.088 218.279 342.336 218.312 342.566 218.379C342.797 218.445 343.018 218.549 343.229 218.689V219.791ZM349.393 218.666V219.721C349.084 219.541 348.773 219.406 348.461 219.316C348.148 219.227 347.83 219.182 347.506 219.182C347.018 219.182 346.652 219.262 346.41 219.422C346.172 219.578 346.053 219.818 346.053 220.143C346.053 220.436 346.143 220.654 346.322 220.799C346.502 220.943 346.949 221.084 347.664 221.221L348.098 221.303C348.633 221.404 349.037 221.607 349.311 221.912C349.588 222.217 349.727 222.613 349.727 223.102C349.727 223.75 349.496 224.258 349.035 224.625C348.574 224.988 347.934 225.17 347.113 225.17C346.789 225.17 346.449 225.135 346.094 225.064C345.738 224.998 345.354 224.896 344.939 224.76V223.646C345.342 223.854 345.727 224.01 346.094 224.115C346.461 224.217 346.809 224.268 347.137 224.268C347.613 224.268 347.982 224.172 348.244 223.98C348.506 223.785 348.637 223.514 348.637 223.166C348.637 222.666 348.158 222.32 347.201 222.129L347.154 222.117L346.75 222.035C346.129 221.914 345.676 221.711 345.391 221.426C345.105 221.137 344.963 220.744 344.963 220.248C344.963 219.619 345.176 219.135 345.602 218.795C346.027 218.451 346.635 218.279 347.424 218.279C347.775 218.279 348.113 218.312 348.438 218.379C348.762 218.441 349.08 218.537 349.393 218.666ZM352.773 218.461H355.533V224.162H357.672V225H352.316V224.162H354.455V219.299H352.773V218.461ZM354.455 215.912H355.533V217.271H354.455V215.912ZM361.762 219.193C361.215 219.193 360.801 219.406 360.52 219.832C360.238 220.258 360.098 220.889 360.098 221.725C360.098 222.557 360.238 223.188 360.52 223.617C360.801 224.043 361.215 224.256 361.762 224.256C362.312 224.256 362.729 224.043 363.01 223.617C363.291 223.188 363.432 222.557 363.432 221.725C363.432 220.889 363.291 220.258 363.01 219.832C362.729 219.406 362.312 219.193 361.762 219.193ZM361.762 218.279C362.672 218.279 363.367 218.574 363.848 219.164C364.332 219.754 364.574 220.607 364.574 221.725C364.574 222.846 364.334 223.701 363.854 224.291C363.373 224.877 362.676 225.17 361.762 225.17C360.852 225.17 360.156 224.877 359.676 224.291C359.195 223.701 358.955 222.846 358.955 221.725C358.955 220.607 359.195 219.754 359.676 219.164C360.156 218.574 360.852 218.279 361.762 218.279ZM371.541 220.934V225H370.457V220.934C370.457 220.344 370.354 219.91 370.146 219.633C369.939 219.355 369.615 219.217 369.174 219.217C368.67 219.217 368.281 219.396 368.008 219.756C367.738 220.111 367.604 220.623 367.604 221.291V225H366.525V218.438H367.604V219.422C367.795 219.047 368.055 218.764 368.383 218.572C368.711 218.377 369.1 218.279 369.549 218.279C370.217 218.279 370.715 218.5 371.043 218.941C371.375 219.379 371.541 220.043 371.541 220.934ZM382.029 224.004H386.049V225H380.734V224.004C381.465 223.234 382.104 222.555 382.65 221.965C383.197 221.375 383.574 220.959 383.781 220.717C384.172 220.24 384.436 219.855 384.572 219.562C384.709 219.266 384.777 218.963 384.777 218.654C384.777 218.166 384.633 217.783 384.344 217.506C384.059 217.229 383.666 217.09 383.166 217.09C382.811 217.09 382.438 217.154 382.047 217.283C381.656 217.412 381.242 217.607 380.805 217.869V216.674C381.207 216.482 381.602 216.338 381.988 216.24C382.379 216.143 382.764 216.094 383.143 216.094C383.998 216.094 384.686 216.322 385.205 216.779C385.729 217.232 385.99 217.828 385.99 218.566C385.99 218.941 385.902 219.316 385.727 219.691C385.555 220.066 385.273 220.48 384.883 220.934C384.664 221.188 384.346 221.539 383.928 221.988C383.514 222.438 382.881 223.109 382.029 224.004Z" fill="black"/>
<rect x="295" y="143" width="120" height="36" rx="18" fill="#D3D3D3"/>
<path d="M325.609 164.004L327.666 156.252H328.891L326.33 165H324.895L322.334 156.252H323.559L325.609 164.004ZM335.793 161.18V161.707H331.123V161.742C331.092 162.637 331.262 163.279 331.633 163.67C332.008 164.061 332.535 164.256 333.215 164.256C333.559 164.256 333.918 164.201 334.293 164.092C334.668 163.982 335.068 163.816 335.494 163.594V164.666C335.084 164.834 334.688 164.959 334.305 165.041C333.926 165.127 333.559 165.17 333.203 165.17C332.184 165.17 331.387 164.865 330.812 164.256C330.238 163.643 329.951 162.799 329.951 161.725C329.951 160.678 330.232 159.842 330.795 159.217C331.357 158.592 332.107 158.279 333.045 158.279C333.881 158.279 334.539 158.562 335.02 159.129C335.504 159.695 335.762 160.379 335.793 161.18ZM334.715 160.863C334.668 160.41 334.502 160.02 334.217 159.691C333.936 159.359 333.529 159.193 332.998 159.193C332.479 159.193 332.051 159.365 331.715 159.709C331.379 160.053 331.195 160.439 331.164 160.869L334.715 160.863ZM343.229 159.791C342.998 159.611 342.764 159.48 342.525 159.398C342.287 159.316 342.025 159.275 341.74 159.275C341.068 159.275 340.555 159.486 340.199 159.908C339.844 160.33 339.666 160.939 339.666 161.736V165H338.582V158.438H339.666V159.721C339.846 159.256 340.121 158.9 340.492 158.654C340.867 158.404 341.311 158.279 341.822 158.279C342.088 158.279 342.336 158.312 342.566 158.379C342.797 158.445 343.018 158.549 343.229 158.689V159.791ZM349.393 158.666V159.721C349.084 159.541 348.773 159.406 348.461 159.316C348.148 159.227 347.83 159.182 347.506 159.182C347.018 159.182 346.652 159.262 346.41 159.422C346.172 159.578 346.053 159.818 346.053 160.143C346.053 160.436 346.143 160.654 346.322 160.799C346.502 160.943 346.949 161.084 347.664 161.221L348.098 161.303C348.633 161.404 349.037 161.607 349.311 161.912C349.588 162.217 349.727 162.613 349.727 163.102C349.727 163.75 349.496 164.258 349.035 164.625C348.574 164.988 347.934 165.17 347.113 165.17C346.789 165.17 346.449 165.135 346.094 165.064C345.738 164.998 345.354 164.896 344.939 164.76V163.646C345.342 163.854 345.727 164.01 346.094 164.115C346.461 164.217 346.809 164.268 347.137 164.268C347.613 164.268 347.982 164.172 348.244 163.98C348.506 163.785 348.637 163.514 348.637 163.166C348.637 162.666 348.158 162.32 347.201 162.129L347.154 162.117L346.75 162.035C346.129 161.914 345.676 161.711 345.391 161.426C345.105 161.137 344.963 160.744 344.963 160.248C344.963 159.619 345.176 159.135 345.602 158.795C346.027 158.451 346.635 158.279 347.424 158.279C347.775 158.279 348.113 158.312 348.438 158.379C348.762 158.441 349.08 158.537 349.393 158.666ZM352.773 158.461H355.533V164.162H357.672V165H352.316V164.162H354.455V159.299H352.773V158.461ZM354.455 155.912H355.533V157.271H354.455V155.912ZM361.762 159.193C361.215 159.193 360.801 159.406 360.52 159.832C360.238 160.258 360.098 160.889 360.098 161.725C360.098 162.557 360.238 163.188 360.52 163.617C360.801 164.043 361.215 164.256 361.762 164.256C362.312 164.256 362.729 164.043 363.01 163.617C363.291 163.188 363.432 162.557 363.432 161.725C363.432 160.889 363.291 160.258 363.01 159.832C362.729 159.406 362.312 159.193 361.762 159.193ZM361.762 158.279C362.672 158.279 363.367 158.574 363.848 159.164C364.332 159.754 364.574 160.607 364.574 161.725C364.574 162.846 364.334 163.701 363.854 164.291C363.373 164.877 362.676 165.17 361.762 165.17C360.852 165.17 360.156 164.877 359.676 164.291C359.195 163.701 358.955 162.846 358.955 161.725C358.955 160.607 359.195 159.754 359.676 159.164C360.156 158.574 360.852 158.279 361.762 158.279ZM371.541 160.934V165H370.457V160.934C370.457 160.344 370.354 159.91 370.146 159.633C369.939 159.355 369.615 159.217 369.174 159.217C368.67 159.217 368.281 159.396 368.008 159.756C367.738 160.111 367.604 160.623 367.604 161.291V165H366.525V158.438H367.604V159.422C367.795 159.047 368.055 158.764 368.383 158.572C368.711 158.377 369.1 158.279 369.549 158.279C370.217 158.279 370.715 158.5 371.043 158.941C371.375 159.379 371.541 160.043 371.541 160.934ZM384.391 160.318C384.965 160.471 385.404 160.742 385.709 161.133C386.014 161.52 386.166 162.004 386.166 162.586C386.166 163.391 385.895 164.023 385.352 164.484C384.812 164.941 384.064 165.17 383.107 165.17C382.705 165.17 382.295 165.133 381.877 165.059C381.459 164.984 381.049 164.877 380.646 164.736V163.559C381.045 163.766 381.438 163.92 381.824 164.021C382.211 164.123 382.596 164.174 382.979 164.174C383.627 164.174 384.125 164.027 384.473 163.734C384.82 163.441 384.994 163.02 384.994 162.469C384.994 161.961 384.82 161.559 384.473 161.262C384.125 160.961 383.654 160.811 383.061 160.811H382.158V159.838H383.061C383.604 159.838 384.027 159.719 384.332 159.48C384.637 159.242 384.789 158.91 384.789 158.484C384.789 158.035 384.646 157.691 384.361 157.453C384.08 157.211 383.678 157.09 383.154 157.09C382.807 157.09 382.447 157.129 382.076 157.207C381.705 157.285 381.316 157.402 380.91 157.559V156.469C381.383 156.344 381.803 156.25 382.17 156.188C382.541 156.125 382.869 156.094 383.154 156.094C384.006 156.094 384.686 156.309 385.193 156.738C385.705 157.164 385.961 157.73 385.961 158.438C385.961 158.918 385.826 159.318 385.557 159.639C385.291 159.959 384.902 160.186 384.391 160.318Z" fill="black"/>
<line x1="355.5" y1="179" x2="355.5" y2="203" stroke="black"/>
<line x1="355.5" y1="239" x2="355.5" y2="263" stroke="black"/>
<rect x="99" y="143" width="120" height="36" rx="18" fill="#48D1CC"/>
<path d="M141.365 156.252H146.516V157.248H142.555V159.592H146.146V160.588H142.555V165H141.365V156.252ZM149.082 158.461H151.842V164.162H153.98V165H148.625V164.162H150.764V159.299H149.082V158.461ZM150.764 155.912H151.842V157.271H150.764V155.912ZM158.674 162.627C158.674 163.111 158.762 163.477 158.938 163.723C159.117 163.969 159.381 164.092 159.729 164.092H160.988V165H159.623C158.979 165 158.479 164.795 158.123 164.385C157.771 163.971 157.596 163.385 157.596 162.627V156.691H155.867V155.848H158.674V162.627ZM168.254 161.18V161.707H163.584V161.742C163.553 162.637 163.723 163.279 164.094 163.67C164.469 164.061 164.996 164.256 165.676 164.256C166.02 164.256 166.379 164.201 166.754 164.092C167.129 163.982 167.529 163.816 167.955 163.594V164.666C167.545 164.834 167.148 164.959 166.766 165.041C166.387 165.127 166.02 165.17 165.664 165.17C164.645 165.17 163.848 164.865 163.273 164.256C162.699 163.643 162.412 162.799 162.412 161.725C162.412 160.678 162.693 159.842 163.256 159.217C163.818 158.592 164.568 158.279 165.506 158.279C166.342 158.279 167 158.562 167.48 159.129C167.965 159.695 168.223 160.379 168.254 161.18ZM167.176 160.863C167.129 160.41 166.963 160.02 166.678 159.691C166.396 159.359 165.99 159.193 165.459 159.193C164.939 159.193 164.512 159.365 164.176 159.709C163.84 160.053 163.656 160.439 163.625 160.869L167.176 160.863ZM174.623 158.666V159.721C174.314 159.541 174.004 159.406 173.691 159.316C173.379 159.227 173.061 159.182 172.736 159.182C172.248 159.182 171.883 159.262 171.641 159.422C171.402 159.578 171.283 159.818 171.283 160.143C171.283 160.436 171.373 160.654 171.553 160.799C171.732 160.943 172.18 161.084 172.895 161.221L173.328 161.303C173.863 161.404 174.268 161.607 174.541 161.912C174.818 162.217 174.957 162.613 174.957 163.102C174.957 163.75 174.727 164.258 174.266 164.625C173.805 164.988 173.164 165.17 172.344 165.17C172.02 165.17 171.68 165.135 171.324 165.064C170.969 164.998 170.584 164.896 170.17 164.76V163.646C170.572 163.854 170.957 164.01 171.324 164.115C171.691 164.217 172.039 164.268 172.367 164.268C172.844 164.268 173.213 164.172 173.475 163.98C173.736 163.785 173.867 163.514 173.867 163.166C173.867 162.666 173.389 162.32 172.432 162.129L172.385 162.117L171.98 162.035C171.359 161.914 170.906 161.711 170.621 161.426C170.336 161.137 170.193 160.744 170.193 160.248C170.193 159.619 170.406 159.135 170.832 158.795C171.258 158.451 171.865 158.279 172.654 158.279C173.006 158.279 173.344 158.312 173.668 158.379C173.992 158.441 174.311 158.537 174.623 158.666Z" fill="black"/>
<path d="M213.68 22.3359H215.266V32.6719H220.898V34H213.68V22.3359ZM226.453 26.2578C225.724 26.2578 225.172 26.5417 224.797 27.1094C224.422 27.6771 224.234 28.5182 224.234 29.6328C224.234 30.7422 224.422 31.5833 224.797 32.1562C225.172 32.724 225.724 33.0078 226.453 33.0078C227.188 33.0078 227.742 32.724 228.117 32.1562C228.492 31.5833 228.68 30.7422 228.68 29.6328C228.68 28.5182 228.492 27.6771 228.117 27.1094C227.742 26.5417 227.188 26.2578 226.453 26.2578ZM226.453 25.0391C227.667 25.0391 228.594 25.4323 229.234 26.2188C229.88 27.0052 230.203 28.1432 230.203 29.6328C230.203 31.1276 229.883 32.2682 229.242 33.0547C228.602 33.8359 227.672 34.2266 226.453 34.2266C225.24 34.2266 224.312 33.8359 223.672 33.0547C223.031 32.2682 222.711 31.1276 222.711 29.6328C222.711 28.1432 223.031 27.0052 223.672 26.2188C224.312 25.4323 225.24 25.0391 226.453 25.0391ZM239.57 33.5547C239.185 33.7786 238.786 33.9453 238.375 34.0547C237.969 34.1693 237.552 34.2266 237.125 34.2266C235.771 34.2266 234.711 33.8203 233.945 33.0078C233.185 32.1953 232.805 31.0703 232.805 29.6328C232.805 28.1953 233.185 27.0703 233.945 26.2578C234.711 25.4453 235.771 25.0391 237.125 25.0391C237.547 25.0391 237.958 25.0938 238.359 25.2031C238.76 25.3125 239.164 25.4818 239.57 25.7109V27.2188C239.19 26.8802 238.807 26.6354 238.422 26.4844C238.042 26.3333 237.609 26.2578 237.125 26.2578C236.224 26.2578 235.531 26.5495 235.047 27.1328C234.562 27.7161 234.32 28.5495 234.32 29.6328C234.32 30.7109 234.562 31.5443 235.047 32.1328C235.536 32.7161 236.229 33.0078 237.125 33.0078C237.625 33.0078 238.073 32.9323 238.469 32.7812C238.865 32.625 239.232 32.3854 239.57 32.0625V33.5547ZM246.406 29.6016H245.93C245.091 29.6016 244.458 29.75 244.031 30.0469C243.609 30.3385 243.398 30.776 243.398 31.3594C243.398 31.8854 243.557 32.2943 243.875 32.5859C244.193 32.8776 244.633 33.0234 245.195 33.0234C245.987 33.0234 246.609 32.75 247.062 32.2031C247.516 31.651 247.745 30.8906 247.75 29.9219V29.6016H246.406ZM249.195 29.0078V34H247.75V32.7031C247.443 33.224 247.055 33.6094 246.586 33.8594C246.122 34.1042 245.557 34.2266 244.891 34.2266C244 34.2266 243.289 33.9766 242.758 33.4766C242.227 32.9714 241.961 32.2969 241.961 31.4531C241.961 30.4792 242.286 29.7396 242.938 29.2344C243.594 28.7292 244.555 28.4766 245.82 28.4766H247.75V28.25C247.745 27.5521 247.568 27.0469 247.219 26.7344C246.87 26.4167 246.312 26.2578 245.547 26.2578C245.057 26.2578 244.562 26.3281 244.062 26.4688C243.562 26.6094 243.076 26.8151 242.602 27.0859V25.6484C243.133 25.4453 243.641 25.2943 244.125 25.1953C244.615 25.0911 245.089 25.0391 245.547 25.0391C246.271 25.0391 246.888 25.1458 247.398 25.3594C247.914 25.5729 248.331 25.8932 248.648 26.3203C248.846 26.5807 248.987 26.9036 249.07 27.2891C249.154 27.6693 249.195 28.2422 249.195 29.0078ZM256.18 30.8359C256.18 31.4818 256.297 31.9688 256.531 32.2969C256.771 32.625 257.122 32.7891 257.586 32.7891H259.266V34H257.445C256.586 34 255.919 33.7266 255.445 33.1797C254.977 32.6276 254.742 31.8464 254.742 30.8359V22.9219H252.438V21.7969H256.18V30.8359ZM278.227 33.5859C277.826 33.7995 277.414 33.9583 276.992 34.0625C276.57 34.1719 276.122 34.2266 275.648 34.2266C274.154 34.2266 272.992 33.6979 272.164 32.6406C271.341 31.5833 270.93 30.0964 270.93 28.1797C270.93 26.2734 271.344 24.7891 272.172 23.7266C273.005 22.6589 274.164 22.125 275.648 22.125C276.122 22.125 276.57 22.1797 276.992 22.2891C277.414 22.3932 277.826 22.5521 278.227 22.7656V24.3828C277.841 24.0651 277.427 23.8229 276.984 23.6562C276.542 23.4896 276.096 23.4062 275.648 23.4062C274.622 23.4062 273.854 23.8021 273.344 24.5938C272.833 25.3854 272.578 26.5807 272.578 28.1797C272.578 29.7734 272.833 30.9661 273.344 31.7578C273.854 32.5495 274.622 32.9453 275.648 32.9453C276.107 32.9453 276.555 32.862 276.992 32.6953C277.435 32.5286 277.846 32.2865 278.227 31.9688V33.5859ZM284.297 26.2578C283.568 26.2578 283.016 26.5417 282.641 27.1094C282.266 27.6771 282.078 28.5182 282.078 29.6328C282.078 30.7422 282.266 31.5833 282.641 32.1562C283.016 32.724 283.568 33.0078 284.297 33.0078C285.031 33.0078 285.586 32.724 285.961 32.1562C286.336 31.5833 286.523 30.7422 286.523 29.6328C286.523 28.5182 286.336 27.6771 285.961 27.1094C285.586 26.5417 285.031 26.2578 284.297 26.2578ZM284.297 25.0391C285.51 25.0391 286.438 25.4323 287.078 26.2188C287.724 27.0052 288.047 28.1432 288.047 29.6328C288.047 31.1276 287.727 32.2682 287.086 33.0547C286.445 33.8359 285.516 34.2266 284.297 34.2266C283.083 34.2266 282.156 33.8359 281.516 33.0547C280.875 32.2682 280.555 31.1276 280.555 29.6328C280.555 28.1432 280.875 27.0052 281.516 26.2188C282.156 25.4323 283.083 25.0391 284.297 25.0391ZM294.406 26.1406C294.583 25.7656 294.807 25.4896 295.078 25.3125C295.354 25.1302 295.685 25.0391 296.07 25.0391C296.773 25.0391 297.268 25.3125 297.555 25.8594C297.846 26.401 297.992 27.4245 297.992 28.9297V34H296.68V28.9922C296.68 27.7578 296.609 26.9922 296.469 26.6953C296.333 26.3932 296.083 26.2422 295.719 26.2422C295.302 26.2422 295.016 26.4036 294.859 26.7266C294.708 27.0443 294.633 27.7995 294.633 28.9922V34H293.32V28.9922C293.32 27.7422 293.245 26.9714 293.094 26.6797C292.948 26.388 292.682 26.2422 292.297 26.2422C291.917 26.2422 291.651 26.4036 291.5 26.7266C291.354 27.0443 291.281 27.7995 291.281 28.9922V34H289.977V25.25H291.281V26C291.453 25.6875 291.667 25.4505 291.922 25.2891C292.182 25.1224 292.477 25.0391 292.805 25.0391C293.201 25.0391 293.529 25.1302 293.789 25.3125C294.055 25.4948 294.26 25.7708 294.406 26.1406ZM301.695 32.8984V37.3281H300.25V25.25H301.695V26.3672C301.935 25.9349 302.253 25.6068 302.648 25.3828C303.049 25.1536 303.51 25.0391 304.031 25.0391C305.089 25.0391 305.917 25.4479 306.516 26.2656C307.12 27.0833 307.422 28.2161 307.422 29.6641C307.422 31.0859 307.12 32.2031 306.516 33.0156C305.911 33.8229 305.083 34.2266 304.031 34.2266C303.5 34.2266 303.034 34.1146 302.633 33.8906C302.237 33.6615 301.924 33.3307 301.695 32.8984ZM305.914 29.6328C305.914 28.5182 305.737 27.6771 305.383 27.1094C305.034 26.5417 304.513 26.2578 303.82 26.2578C303.122 26.2578 302.594 26.5443 302.234 27.1172C301.875 27.6849 301.695 28.5234 301.695 29.6328C301.695 30.737 301.875 31.5755 302.234 32.1484C302.594 32.7214 303.122 33.0078 303.82 33.0078C304.513 33.0078 305.034 32.724 305.383 32.1562C305.737 31.5885 305.914 30.7474 305.914 29.6328ZM309.93 30.6875V25.2656H311.367V30.6875C311.367 31.474 311.505 32.0521 311.781 32.4219C312.062 32.7917 312.495 32.9766 313.078 32.9766C313.755 32.9766 314.273 32.7396 314.633 32.2656C314.992 31.7865 315.172 31.1016 315.172 30.2109V25.2656H316.617V34H315.172V32.6875C314.917 33.1927 314.568 33.5755 314.125 33.8359C313.688 34.0964 313.174 34.2266 312.586 34.2266C311.69 34.2266 311.023 33.9349 310.586 33.3516C310.148 32.763 309.93 31.875 309.93 30.6875ZM322.844 22.7656V25.25H326.109V26.3672H322.844V31.1172C322.844 31.763 322.966 32.2135 323.211 32.4688C323.456 32.724 323.883 32.8516 324.492 32.8516H326.109V34H324.352C323.273 34 322.513 33.7839 322.07 33.3516C321.628 32.9193 321.406 32.1745 321.406 31.1172V26.3672H319.07V25.25H321.406V22.7656H322.844ZM336.438 28.9062V29.6094H330.211V29.6562C330.169 30.849 330.396 31.7057 330.891 32.2266C331.391 32.7474 332.094 33.0078 333 33.0078C333.458 33.0078 333.938 32.9349 334.438 32.7891C334.938 32.6432 335.471 32.4219 336.039 32.125V33.5547C335.492 33.7786 334.964 33.9453 334.453 34.0547C333.948 34.1693 333.458 34.2266 332.984 34.2266C331.625 34.2266 330.562 33.8203 329.797 33.0078C329.031 32.1901 328.648 31.0651 328.648 29.6328C328.648 28.237 329.023 27.1224 329.773 26.2891C330.523 25.4557 331.523 25.0391 332.773 25.0391C333.888 25.0391 334.766 25.4167 335.406 26.1719C336.052 26.9271 336.396 27.8385 336.438 28.9062ZM335 28.4844C334.938 27.8802 334.716 27.3594 334.336 26.9219C333.961 26.4792 333.419 26.2578 332.711 26.2578C332.018 26.2578 331.448 26.487 331 26.9453C330.552 27.4036 330.307 27.9193 330.266 28.4922L335 28.4844ZM346.352 27.0547C346.044 26.8151 345.732 26.6406 345.414 26.5312C345.096 26.4219 344.747 26.3672 344.367 26.3672C343.471 26.3672 342.786 26.6484 342.312 27.2109C341.839 27.7734 341.602 28.5859 341.602 29.6484V34H340.156V25.25H341.602V26.9609C341.841 26.3411 342.208 25.8672 342.703 25.5391C343.203 25.2057 343.794 25.0391 344.477 25.0391C344.831 25.0391 345.161 25.0833 345.469 25.1719C345.776 25.2604 346.07 25.3984 346.352 25.5859V27.0547Z" fill="black"/>
<path d="M136.287 107.689C135.986 107.85 135.678 107.969 135.361 108.047C135.045 108.129 134.709 108.17 134.354 108.17C133.232 108.17 132.361 107.773 131.74 106.98C131.123 106.188 130.814 105.072 130.814 103.635C130.814 102.205 131.125 101.092 131.746 100.295C132.371 99.4941 133.24 99.0938 134.354 99.0938C134.709 99.0938 135.045 99.1348 135.361 99.2168C135.678 99.2949 135.986 99.4141 136.287 99.5742V100.787C135.998 100.549 135.688 100.367 135.355 100.242C135.023 100.117 134.689 100.055 134.354 100.055C133.584 100.055 133.008 100.352 132.625 100.945C132.242 101.539 132.051 102.436 132.051 103.635C132.051 104.83 132.242 105.725 132.625 106.318C133.008 106.912 133.584 107.209 134.354 107.209C134.697 107.209 135.033 107.146 135.361 107.021C135.693 106.896 136.002 106.715 136.287 106.477V107.689ZM143.389 103.934V108H142.305V103.934C142.305 103.344 142.201 102.91 141.994 102.633C141.787 102.355 141.463 102.217 141.021 102.217C140.518 102.217 140.129 102.396 139.855 102.756C139.586 103.111 139.451 103.623 139.451 104.291V108H138.373V98.8828H139.451V102.422C139.643 102.047 139.902 101.764 140.23 101.572C140.559 101.377 140.947 101.279 141.396 101.279C142.064 101.279 142.562 101.5 142.891 101.941C143.223 102.379 143.389 103.043 143.389 103.934ZM151.023 104.18V104.707H146.354V104.742C146.322 105.637 146.492 106.279 146.863 106.67C147.238 107.061 147.766 107.256 148.445 107.256C148.789 107.256 149.148 107.201 149.523 107.092C149.898 106.982 150.299 106.816 150.725 106.594V107.666C150.314 107.834 149.918 107.959 149.535 108.041C149.156 108.127 148.789 108.17 148.434 108.17C147.414 108.17 146.617 107.865 146.043 107.256C145.469 106.643 145.182 105.799 145.182 104.725C145.182 103.678 145.463 102.842 146.025 102.217C146.588 101.592 147.338 101.279 148.275 101.279C149.111 101.279 149.77 101.562 150.25 102.129C150.734 102.695 150.992 103.379 151.023 104.18ZM149.945 103.863C149.898 103.41 149.732 103.02 149.447 102.691C149.166 102.359 148.76 102.193 148.229 102.193C147.709 102.193 147.281 102.365 146.945 102.709C146.609 103.053 146.426 103.439 146.395 103.869L149.945 103.863ZM157.908 107.666C157.619 107.834 157.32 107.959 157.012 108.041C156.707 108.127 156.395 108.17 156.074 108.17C155.059 108.17 154.264 107.865 153.689 107.256C153.119 106.646 152.834 105.803 152.834 104.725C152.834 103.646 153.119 102.803 153.689 102.193C154.264 101.584 155.059 101.279 156.074 101.279C156.391 101.279 156.699 101.32 157 101.402C157.301 101.484 157.604 101.611 157.908 101.783V102.914C157.623 102.66 157.336 102.477 157.047 102.363C156.762 102.25 156.438 102.193 156.074 102.193C155.398 102.193 154.879 102.412 154.516 102.85C154.152 103.287 153.971 103.912 153.971 104.725C153.971 105.533 154.152 106.158 154.516 106.6C154.883 107.037 155.402 107.256 156.074 107.256C156.449 107.256 156.785 107.199 157.082 107.086C157.379 106.969 157.654 106.789 157.908 106.547V107.666ZM160.305 98.8828H161.418V104.162L164.248 101.438H165.561L162.977 103.91L165.965 108H164.646L162.221 104.613L161.418 105.369V108H160.305V98.8828ZM169.762 102.193C169.215 102.193 168.801 102.406 168.52 102.832C168.238 103.258 168.098 103.889 168.098 104.725C168.098 105.557 168.238 106.188 168.52 106.617C168.801 107.043 169.215 107.256 169.762 107.256C170.312 107.256 170.729 107.043 171.01 106.617C171.291 106.188 171.432 105.557 171.432 104.725C171.432 103.889 171.291 103.258 171.01 102.832C170.729 102.406 170.312 102.193 169.762 102.193ZM169.762 101.279C170.672 101.279 171.367 101.574 171.848 102.164C172.332 102.754 172.574 103.607 172.574 104.725C172.574 105.846 172.334 106.701 171.854 107.291C171.373 107.877 170.676 108.17 169.762 108.17C168.852 108.17 168.156 107.877 167.676 107.291C167.195 106.701 166.955 105.846 166.955 104.725C166.955 103.607 167.195 102.754 167.676 102.164C168.156 101.574 168.852 101.279 169.762 101.279ZM174.525 105.516V101.449H175.604V105.516C175.604 106.105 175.707 106.539 175.914 106.816C176.125 107.094 176.449 107.232 176.887 107.232C177.395 107.232 177.783 107.055 178.053 106.699C178.322 106.34 178.457 105.826 178.457 105.158V101.449H179.541V108H178.457V107.016C178.266 107.395 178.004 107.682 177.672 107.877C177.344 108.072 176.959 108.17 176.518 108.17C175.846 108.17 175.346 107.951 175.018 107.514C174.689 107.072 174.525 106.406 174.525 105.516ZM184.211 99.5742V101.438H186.66V102.275H184.211V105.838C184.211 106.322 184.303 106.66 184.486 106.852C184.67 107.043 184.99 107.139 185.447 107.139H186.66V108H185.342C184.533 108 183.963 107.838 183.631 107.514C183.299 107.189 183.133 106.631 183.133 105.838V102.275H181.381V101.438H183.133V99.5742H184.211Z" fill="black"/>
<line x1="219" y1="160.5" x2="295" y2="160.5" stroke="black"/>
</svg>
