<svg width="249" height="372" viewBox="0 0 249 372" fill="none" xmlns="http://www.w3.org/2000/svg">
<path d="M142.027 257.666C142.027 256.857 141.895 256.244 141.629 255.826C141.367 255.404 140.984 255.193 140.48 255.193C139.953 255.193 139.551 255.404 139.273 255.826C138.996 256.244 138.857 256.857 138.857 257.666C138.857 258.475 138.996 259.092 139.273 259.518C139.555 259.939 139.961 260.15 140.492 260.15C140.988 260.15 141.367 259.938 141.629 259.512C141.895 259.086 142.027 258.471 142.027 257.666ZM143.105 260.578C143.105 261.562 142.873 262.309 142.408 262.816C141.943 263.324 141.26 263.578 140.357 263.578C140.061 263.578 139.75 263.551 139.426 263.496C139.102 263.441 138.777 263.361 138.453 263.256V262.189C138.836 262.369 139.184 262.502 139.496 262.588C139.809 262.674 140.096 262.717 140.357 262.717C140.939 262.717 141.363 262.559 141.629 262.242C141.895 261.926 142.027 261.424 142.027 260.736V260.689V259.957C141.855 260.324 141.621 260.598 141.324 260.777C141.027 260.957 140.666 261.047 140.24 261.047C139.475 261.047 138.863 260.74 138.406 260.127C137.949 259.514 137.721 258.693 137.721 257.666C137.721 256.635 137.949 255.812 138.406 255.199C138.863 254.586 139.475 254.279 140.24 254.279C140.662 254.279 141.02 254.363 141.312 254.531C141.605 254.699 141.844 254.959 142.027 255.311V254.461H143.105V260.578ZM146.082 254.461H148.842V260.162H150.98V261H145.625V260.162H147.764V255.299H146.082V254.461ZM147.764 251.912H148.842V253.271H147.764V251.912ZM155.059 252.574V254.438H157.508V255.275H155.059V258.838C155.059 259.322 155.15 259.66 155.334 259.852C155.518 260.043 155.838 260.139 156.295 260.139H157.508V261H156.189C155.381 261 154.811 260.838 154.479 260.514C154.146 260.189 153.98 259.631 153.98 258.838V255.275H152.229V254.438H153.98V252.574H155.059ZM170.035 257.701H169.678C169.049 257.701 168.574 257.812 168.254 258.035C167.938 258.254 167.779 258.582 167.779 259.02C167.779 259.414 167.898 259.721 168.137 259.939C168.375 260.158 168.705 260.268 169.127 260.268C169.721 260.268 170.188 260.062 170.527 259.652C170.867 259.238 171.039 258.668 171.043 257.941V257.701H170.035ZM172.127 257.256V261H171.043V260.027C170.812 260.418 170.521 260.707 170.17 260.895C169.822 261.078 169.398 261.17 168.898 261.17C168.23 261.17 167.697 260.982 167.299 260.607C166.9 260.229 166.701 259.723 166.701 259.09C166.701 258.359 166.945 257.805 167.434 257.426C167.926 257.047 168.646 256.857 169.596 256.857H171.043V256.688C171.039 256.164 170.906 255.785 170.645 255.551C170.383 255.312 169.965 255.193 169.391 255.193C169.023 255.193 168.652 255.246 168.277 255.352C167.902 255.457 167.537 255.611 167.182 255.814V254.736C167.58 254.584 167.961 254.471 168.324 254.396C168.691 254.318 169.047 254.279 169.391 254.279C169.934 254.279 170.396 254.359 170.779 254.52C171.166 254.68 171.479 254.92 171.717 255.24C171.865 255.436 171.971 255.678 172.033 255.967C172.096 256.252 172.127 256.682 172.127 257.256ZM178.18 255.275V251.883H179.258V261H178.18V260.174C178 260.498 177.76 260.746 177.459 260.918C177.162 261.086 176.818 261.17 176.428 261.17C175.635 261.17 175.01 260.863 174.553 260.25C174.1 259.633 173.873 258.783 173.873 257.701C173.873 256.635 174.102 255.799 174.559 255.193C175.016 254.584 175.639 254.279 176.428 254.279C176.822 254.279 177.17 254.365 177.471 254.537C177.771 254.705 178.008 254.951 178.18 255.275ZM175.01 257.725C175.01 258.561 175.143 259.191 175.408 259.617C175.674 260.043 176.066 260.256 176.586 260.256C177.105 260.256 177.5 260.041 177.77 259.611C178.043 259.182 178.18 258.553 178.18 257.725C178.18 256.893 178.043 256.264 177.77 255.838C177.5 255.408 177.105 255.193 176.586 255.193C176.066 255.193 175.674 255.406 175.408 255.832C175.143 256.258 175.01 256.889 175.01 257.725ZM185.41 255.275V251.883H186.488V261H185.41V260.174C185.23 260.498 184.99 260.746 184.689 260.918C184.393 261.086 184.049 261.17 183.658 261.17C182.865 261.17 182.24 260.863 181.783 260.25C181.33 259.633 181.104 258.783 181.104 257.701C181.104 256.635 181.332 255.799 181.789 255.193C182.246 254.584 182.869 254.279 183.658 254.279C184.053 254.279 184.4 254.365 184.701 254.537C185.002 254.705 185.238 254.951 185.41 255.275ZM182.24 257.725C182.24 258.561 182.373 259.191 182.639 259.617C182.904 260.043 183.297 260.256 183.816 260.256C184.336 260.256 184.73 260.041 185 259.611C185.273 259.182 185.41 258.553 185.41 257.725C185.41 256.893 185.273 256.264 185 255.838C184.73 255.408 184.336 255.193 183.816 255.193C183.297 255.193 182.904 255.406 182.639 255.832C182.373 256.258 182.24 256.889 182.24 257.725Z" fill="black"/>
<rect x="75" y="304" width="174" height="48" fill="#FF6347"/>
<path d="M90 325.344H91.2441L92.5771 331.53L93.6709 327.579H94.7441L95.8516 331.53L97.1846 325.344H98.4287L96.6377 333H95.4346L94.2109 328.803L92.9941 333H91.791L90 325.344ZM102.646 326.226C102.008 326.226 101.525 326.474 101.197 326.971C100.869 327.467 100.705 328.203 100.705 329.179C100.705 330.149 100.869 330.885 101.197 331.387C101.525 331.883 102.008 332.132 102.646 332.132C103.289 332.132 103.774 331.883 104.103 331.387C104.431 330.885 104.595 330.149 104.595 329.179C104.595 328.203 104.431 327.467 104.103 326.971C103.774 326.474 103.289 326.226 102.646 326.226ZM102.646 325.159C103.708 325.159 104.52 325.503 105.08 326.191C105.645 326.88 105.928 327.875 105.928 329.179C105.928 330.487 105.647 331.485 105.087 332.173C104.526 332.856 103.713 333.198 102.646 333.198C101.585 333.198 100.773 332.856 100.213 332.173C99.6523 331.485 99.3721 330.487 99.3721 329.179C99.3721 327.875 99.6523 326.88 100.213 326.191C100.773 325.503 101.585 325.159 102.646 325.159ZM114.767 326.923C114.498 326.713 114.224 326.561 113.946 326.465C113.668 326.369 113.363 326.321 113.03 326.321C112.246 326.321 111.647 326.567 111.232 327.06C110.818 327.552 110.61 328.263 110.61 329.192V333H109.346V325.344H110.61V326.841C110.82 326.299 111.141 325.884 111.574 325.597C112.012 325.305 112.529 325.159 113.126 325.159C113.436 325.159 113.725 325.198 113.994 325.275C114.263 325.353 114.521 325.474 114.767 325.638V326.923ZM116.92 322.363H118.219V328.522L121.521 325.344H123.052L120.037 328.229L123.523 333H121.985L119.155 329.049L118.219 329.931V333H116.92V322.363ZM125.902 325.371H129.122V332.022H131.617V333H125.369V332.022H127.864V326.349H125.902V325.371ZM127.864 322.397H129.122V323.983H127.864V322.397ZM139.362 328.256V333H138.098V328.256C138.098 327.568 137.977 327.062 137.735 326.738C137.494 326.415 137.116 326.253 136.601 326.253C136.013 326.253 135.559 326.463 135.24 326.882C134.926 327.297 134.769 327.894 134.769 328.673V333H133.511V325.344H134.769V326.492C134.992 326.055 135.295 325.724 135.678 325.501C136.061 325.273 136.514 325.159 137.038 325.159C137.817 325.159 138.398 325.417 138.781 325.932C139.169 326.442 139.362 327.217 139.362 328.256ZM146.479 329.11C146.479 328.167 146.324 327.451 146.014 326.964C145.708 326.472 145.262 326.226 144.674 326.226C144.059 326.226 143.589 326.472 143.266 326.964C142.942 327.451 142.78 328.167 142.78 329.11C142.78 330.054 142.942 330.774 143.266 331.271C143.594 331.763 144.068 332.009 144.688 332.009C145.266 332.009 145.708 331.76 146.014 331.264C146.324 330.767 146.479 330.049 146.479 329.11ZM147.736 332.508C147.736 333.656 147.465 334.527 146.923 335.119C146.381 335.712 145.583 336.008 144.53 336.008C144.184 336.008 143.822 335.976 143.443 335.912C143.065 335.848 142.687 335.755 142.309 335.632V334.388C142.755 334.597 143.161 334.752 143.525 334.853C143.89 334.953 144.225 335.003 144.53 335.003C145.209 335.003 145.704 334.818 146.014 334.449C146.324 334.08 146.479 333.494 146.479 332.692V332.638V331.783C146.278 332.212 146.005 332.531 145.658 332.74C145.312 332.95 144.89 333.055 144.394 333.055C143.5 333.055 142.787 332.697 142.254 331.981C141.721 331.266 141.454 330.309 141.454 329.11C141.454 327.907 141.721 326.948 142.254 326.232C142.787 325.517 143.5 325.159 144.394 325.159C144.886 325.159 145.303 325.257 145.645 325.453C145.986 325.649 146.264 325.952 146.479 326.362V325.371H147.736V332.508ZM163.35 326.321V322.363H164.607V333H163.35V332.036C163.14 332.414 162.86 332.704 162.509 332.904C162.162 333.1 161.761 333.198 161.306 333.198C160.381 333.198 159.651 332.84 159.118 332.125C158.59 331.405 158.325 330.414 158.325 329.151C158.325 327.907 158.592 326.932 159.125 326.226C159.658 325.515 160.385 325.159 161.306 325.159C161.766 325.159 162.172 325.259 162.522 325.46C162.873 325.656 163.149 325.943 163.35 326.321ZM159.651 329.179C159.651 330.154 159.806 330.89 160.116 331.387C160.426 331.883 160.884 332.132 161.49 332.132C162.096 332.132 162.557 331.881 162.871 331.38C163.19 330.879 163.35 330.145 163.35 329.179C163.35 328.208 163.19 327.474 162.871 326.978C162.557 326.476 162.096 326.226 161.49 326.226C160.884 326.226 160.426 326.474 160.116 326.971C159.806 327.467 159.651 328.203 159.651 329.179ZM168.08 325.371H171.3V332.022H173.795V333H167.547V332.022H170.042V326.349H168.08V325.371ZM170.042 322.397H171.3V323.983H170.042V322.397ZM182.251 326.923C181.982 326.713 181.709 326.561 181.431 326.465C181.153 326.369 180.847 326.321 180.515 326.321C179.731 326.321 179.132 326.567 178.717 327.06C178.302 327.552 178.095 328.263 178.095 329.192V333H176.83V325.344H178.095V326.841C178.304 326.299 178.626 325.884 179.059 325.597C179.496 325.305 180.013 325.159 180.61 325.159C180.92 325.159 181.21 325.198 181.479 325.275C181.747 325.353 182.005 325.474 182.251 325.638V326.923ZM190.447 328.543V329.158H184.999V329.199C184.963 330.243 185.161 330.993 185.594 331.448C186.031 331.904 186.646 332.132 187.439 332.132C187.84 332.132 188.26 332.068 188.697 331.94C189.135 331.813 189.602 331.619 190.099 331.359V332.61C189.62 332.806 189.158 332.952 188.711 333.048C188.269 333.148 187.84 333.198 187.426 333.198C186.236 333.198 185.307 332.843 184.637 332.132C183.967 331.416 183.632 330.432 183.632 329.179C183.632 327.957 183.96 326.982 184.616 326.253C185.272 325.524 186.147 325.159 187.241 325.159C188.216 325.159 188.984 325.49 189.545 326.15C190.11 326.811 190.411 327.609 190.447 328.543ZM189.189 328.174C189.135 327.645 188.941 327.189 188.608 326.807C188.28 326.419 187.806 326.226 187.187 326.226C186.58 326.226 186.081 326.426 185.689 326.827C185.298 327.228 185.083 327.679 185.047 328.181L189.189 328.174ZM198.479 332.61C198.142 332.806 197.794 332.952 197.434 333.048C197.078 333.148 196.714 333.198 196.34 333.198C195.155 333.198 194.228 332.843 193.558 332.132C192.892 331.421 192.56 330.437 192.56 329.179C192.56 327.921 192.892 326.937 193.558 326.226C194.228 325.515 195.155 325.159 196.34 325.159C196.709 325.159 197.069 325.207 197.42 325.303C197.771 325.398 198.124 325.547 198.479 325.747V327.066C198.147 326.77 197.812 326.556 197.475 326.424C197.142 326.292 196.764 326.226 196.34 326.226C195.551 326.226 194.945 326.481 194.521 326.991C194.098 327.502 193.886 328.231 193.886 329.179C193.886 330.122 194.098 330.851 194.521 331.366C194.95 331.877 195.556 332.132 196.34 332.132C196.777 332.132 197.169 332.066 197.516 331.934C197.862 331.797 198.183 331.587 198.479 331.305V332.61ZM203.859 323.17V325.344H206.717V326.321H203.859V330.478C203.859 331.043 203.966 331.437 204.181 331.66C204.395 331.883 204.769 331.995 205.302 331.995H206.717V333H205.179C204.235 333 203.57 332.811 203.183 332.433C202.795 332.054 202.602 331.403 202.602 330.478V326.321H200.558V325.344H202.602V323.17H203.859ZM212.309 326.226C211.671 326.226 211.188 326.474 210.859 326.971C210.531 327.467 210.367 328.203 210.367 329.179C210.367 330.149 210.531 330.885 210.859 331.387C211.188 331.883 211.671 332.132 212.309 332.132C212.951 332.132 213.437 331.883 213.765 331.387C214.093 330.885 214.257 330.149 214.257 329.179C214.257 328.203 214.093 327.467 213.765 326.971C213.437 326.474 212.951 326.226 212.309 326.226ZM212.309 325.159C213.37 325.159 214.182 325.503 214.742 326.191C215.307 326.88 215.59 327.875 215.59 329.179C215.59 330.487 215.31 331.485 214.749 332.173C214.188 332.856 213.375 333.198 212.309 333.198C211.247 333.198 210.436 332.856 209.875 332.173C209.314 331.485 209.034 330.487 209.034 329.179C209.034 327.875 209.314 326.88 209.875 326.191C210.436 325.503 211.247 325.159 212.309 325.159ZM224.429 326.923C224.16 326.713 223.886 326.561 223.608 326.465C223.33 326.369 223.025 326.321 222.692 326.321C221.909 326.321 221.309 326.567 220.895 327.06C220.48 327.552 220.272 328.263 220.272 329.192V333H219.008V325.344H220.272V326.841C220.482 326.299 220.803 325.884 221.236 325.597C221.674 325.305 222.191 325.159 222.788 325.159C223.098 325.159 223.387 325.198 223.656 325.275C223.925 325.353 224.183 325.474 224.429 325.638V326.923ZM230.834 330.539C230.624 331.072 230.358 331.774 230.034 332.645C229.583 333.848 229.28 334.581 229.125 334.846C228.915 335.201 228.653 335.468 228.339 335.646C228.024 335.823 227.658 335.912 227.238 335.912H226.227V334.859H226.972C227.341 334.859 227.63 334.752 227.84 334.538C228.049 334.324 228.316 333.77 228.64 332.877L225.68 325.344H227.013L229.282 331.332L231.518 325.344H232.851L230.834 330.539Z" fill="black"/>
<rect x="75" y="162" width="174" height="48" fill="#DAA520"/>
<path d="M117.651 183.61V184.841C117.291 184.631 116.929 184.474 116.564 184.369C116.2 184.264 115.828 184.212 115.45 184.212C114.881 184.212 114.454 184.305 114.172 184.492C113.894 184.674 113.755 184.955 113.755 185.333C113.755 185.675 113.86 185.93 114.069 186.099C114.279 186.267 114.801 186.431 115.635 186.591L116.141 186.687C116.765 186.805 117.237 187.042 117.556 187.397C117.879 187.753 118.041 188.215 118.041 188.785C118.041 189.542 117.772 190.134 117.234 190.562C116.697 190.986 115.949 191.198 114.992 191.198C114.614 191.198 114.217 191.157 113.803 191.075C113.388 190.998 112.939 190.879 112.456 190.72V189.421C112.925 189.662 113.374 189.845 113.803 189.968C114.231 190.086 114.637 190.146 115.02 190.146C115.576 190.146 116.006 190.034 116.312 189.811C116.617 189.583 116.77 189.266 116.77 188.86C116.77 188.277 116.211 187.874 115.095 187.65L115.04 187.637L114.568 187.541C113.844 187.4 113.315 187.163 112.982 186.83C112.65 186.493 112.483 186.035 112.483 185.456C112.483 184.722 112.732 184.157 113.229 183.761C113.725 183.36 114.434 183.159 115.354 183.159C115.765 183.159 116.159 183.198 116.537 183.275C116.915 183.348 117.287 183.46 117.651 183.61ZM123.633 181.17V183.344H126.49V184.321H123.633V188.478C123.633 189.043 123.74 189.437 123.954 189.66C124.168 189.883 124.542 189.995 125.075 189.995H126.49V191H124.952C124.009 191 123.343 190.811 122.956 190.433C122.569 190.054 122.375 189.403 122.375 188.478V184.321H120.331V183.344H122.375V181.17H123.633ZM132.67 187.151H132.253C131.519 187.151 130.965 187.281 130.592 187.541C130.223 187.796 130.038 188.179 130.038 188.689C130.038 189.15 130.177 189.507 130.455 189.763C130.733 190.018 131.118 190.146 131.61 190.146C132.303 190.146 132.848 189.906 133.244 189.428C133.641 188.945 133.841 188.279 133.846 187.432V187.151H132.67ZM135.11 186.632V191H133.846V189.865C133.577 190.321 133.237 190.658 132.827 190.877C132.422 191.091 131.927 191.198 131.344 191.198C130.564 191.198 129.942 190.979 129.478 190.542C129.013 190.1 128.78 189.51 128.78 188.771C128.78 187.919 129.065 187.272 129.635 186.83C130.209 186.388 131.05 186.167 132.157 186.167H133.846V185.969C133.841 185.358 133.686 184.916 133.381 184.643C133.076 184.365 132.588 184.226 131.918 184.226C131.49 184.226 131.057 184.287 130.619 184.41C130.182 184.533 129.756 184.713 129.341 184.95V183.692C129.806 183.515 130.25 183.382 130.674 183.296C131.102 183.205 131.517 183.159 131.918 183.159C132.551 183.159 133.091 183.253 133.538 183.439C133.989 183.626 134.354 183.907 134.632 184.28C134.805 184.508 134.928 184.791 135.001 185.128C135.074 185.461 135.11 185.962 135.11 186.632ZM142.172 187.11C142.172 186.167 142.017 185.451 141.707 184.964C141.402 184.472 140.955 184.226 140.367 184.226C139.752 184.226 139.283 184.472 138.959 184.964C138.635 185.451 138.474 186.167 138.474 187.11C138.474 188.054 138.635 188.774 138.959 189.271C139.287 189.763 139.761 190.009 140.381 190.009C140.96 190.009 141.402 189.76 141.707 189.264C142.017 188.767 142.172 188.049 142.172 187.11ZM143.43 190.508C143.43 191.656 143.159 192.527 142.616 193.119C142.074 193.712 141.276 194.008 140.224 194.008C139.877 194.008 139.515 193.976 139.137 193.912C138.758 193.848 138.38 193.755 138.002 193.632V192.388C138.449 192.597 138.854 192.752 139.219 192.853C139.583 192.953 139.918 193.003 140.224 193.003C140.903 193.003 141.397 192.818 141.707 192.449C142.017 192.08 142.172 191.494 142.172 190.692V190.638V189.783C141.971 190.212 141.698 190.531 141.352 190.74C141.005 190.95 140.584 191.055 140.087 191.055C139.194 191.055 138.48 190.697 137.947 189.981C137.414 189.266 137.147 188.309 137.147 187.11C137.147 185.907 137.414 184.948 137.947 184.232C138.48 183.517 139.194 183.159 140.087 183.159C140.579 183.159 140.996 183.257 141.338 183.453C141.68 183.649 141.958 183.952 142.172 184.362V183.371H143.43V190.508ZM146.902 183.371H150.122V190.022H152.617V191H146.369V190.022H148.864V184.349H146.902V183.371ZM148.864 180.397H150.122V181.983H148.864V180.397ZM160.362 186.256V191H159.098V186.256C159.098 185.568 158.977 185.062 158.735 184.738C158.494 184.415 158.116 184.253 157.601 184.253C157.013 184.253 156.559 184.463 156.24 184.882C155.926 185.297 155.769 185.894 155.769 186.673V191H154.511V183.344H155.769V184.492C155.992 184.055 156.295 183.724 156.678 183.501C157.061 183.273 157.514 183.159 158.038 183.159C158.817 183.159 159.398 183.417 159.781 183.932C160.169 184.442 160.362 185.217 160.362 186.256ZM167.479 187.11C167.479 186.167 167.324 185.451 167.014 184.964C166.708 184.472 166.262 184.226 165.674 184.226C165.059 184.226 164.589 184.472 164.266 184.964C163.942 185.451 163.78 186.167 163.78 187.11C163.78 188.054 163.942 188.774 164.266 189.271C164.594 189.763 165.068 190.009 165.688 190.009C166.266 190.009 166.708 189.76 167.014 189.264C167.324 188.767 167.479 188.049 167.479 187.11ZM168.736 190.508C168.736 191.656 168.465 192.527 167.923 193.119C167.381 193.712 166.583 194.008 165.53 194.008C165.184 194.008 164.822 193.976 164.443 193.912C164.065 193.848 163.687 193.755 163.309 193.632V192.388C163.755 192.597 164.161 192.752 164.525 192.853C164.89 192.953 165.225 193.003 165.53 193.003C166.209 193.003 166.704 192.818 167.014 192.449C167.324 192.08 167.479 191.494 167.479 190.692V190.638V189.783C167.278 190.212 167.005 190.531 166.658 190.74C166.312 190.95 165.89 191.055 165.394 191.055C164.5 191.055 163.787 190.697 163.254 189.981C162.721 189.266 162.454 188.309 162.454 187.11C162.454 185.907 162.721 184.948 163.254 184.232C163.787 183.517 164.5 183.159 165.394 183.159C165.886 183.159 166.303 183.257 166.645 183.453C166.986 183.649 167.264 183.952 167.479 184.362V183.371H168.736V190.508ZM183.283 187.151H182.866C182.132 187.151 181.579 187.281 181.205 187.541C180.836 187.796 180.651 188.179 180.651 188.689C180.651 189.15 180.79 189.507 181.068 189.763C181.346 190.018 181.731 190.146 182.224 190.146C182.916 190.146 183.461 189.906 183.857 189.428C184.254 188.945 184.454 188.279 184.459 187.432V187.151H183.283ZM185.724 186.632V191H184.459V189.865C184.19 190.321 183.851 190.658 183.44 190.877C183.035 191.091 182.54 191.198 181.957 191.198C181.178 191.198 180.556 190.979 180.091 190.542C179.626 190.1 179.394 189.51 179.394 188.771C179.394 187.919 179.678 187.272 180.248 186.83C180.822 186.388 181.663 186.167 182.771 186.167H184.459V185.969C184.454 185.358 184.299 184.916 183.994 184.643C183.689 184.365 183.201 184.226 182.531 184.226C182.103 184.226 181.67 184.287 181.232 184.41C180.795 184.533 180.369 184.713 179.954 184.95V183.692C180.419 183.515 180.863 183.382 181.287 183.296C181.715 183.205 182.13 183.159 182.531 183.159C183.165 183.159 183.705 183.253 184.151 183.439C184.603 183.626 184.967 183.907 185.245 184.28C185.418 184.508 185.541 184.791 185.614 185.128C185.687 185.461 185.724 185.962 185.724 186.632ZM194.815 184.923C194.547 184.713 194.273 184.561 193.995 184.465C193.717 184.369 193.412 184.321 193.079 184.321C192.295 184.321 191.696 184.567 191.281 185.06C190.867 185.552 190.659 186.263 190.659 187.192V191H189.395V183.344H190.659V184.841C190.869 184.299 191.19 183.884 191.623 183.597C192.061 183.305 192.578 183.159 193.175 183.159C193.485 183.159 193.774 183.198 194.043 183.275C194.312 183.353 194.569 183.474 194.815 183.638V184.923ZM203.012 186.543V187.158H197.563V187.199C197.527 188.243 197.725 188.993 198.158 189.448C198.596 189.904 199.211 190.132 200.004 190.132C200.405 190.132 200.824 190.068 201.262 189.94C201.699 189.813 202.166 189.619 202.663 189.359V190.61C202.185 190.806 201.722 190.952 201.275 191.048C200.833 191.148 200.405 191.198 199.99 191.198C198.801 191.198 197.871 190.843 197.201 190.132C196.531 189.416 196.196 188.432 196.196 187.179C196.196 185.957 196.524 184.982 197.181 184.253C197.837 183.524 198.712 183.159 199.806 183.159C200.781 183.159 201.549 183.49 202.109 184.15C202.674 184.811 202.975 185.609 203.012 186.543ZM201.754 186.174C201.699 185.645 201.506 185.189 201.173 184.807C200.845 184.419 200.371 184.226 199.751 184.226C199.145 184.226 198.646 184.426 198.254 184.827C197.862 185.228 197.648 185.679 197.611 186.181L201.754 186.174ZM208.59 187.151H208.173C207.439 187.151 206.885 187.281 206.512 187.541C206.143 187.796 205.958 188.179 205.958 188.689C205.958 189.15 206.097 189.507 206.375 189.763C206.653 190.018 207.038 190.146 207.53 190.146C208.223 190.146 208.768 189.906 209.164 189.428C209.561 188.945 209.761 188.279 209.766 187.432V187.151H208.59ZM211.03 186.632V191H209.766V189.865C209.497 190.321 209.157 190.658 208.747 190.877C208.341 191.091 207.847 191.198 207.264 191.198C206.484 191.198 205.862 190.979 205.397 190.542C204.933 190.1 204.7 189.51 204.7 188.771C204.7 187.919 204.985 187.272 205.555 186.83C206.129 186.388 206.97 186.167 208.077 186.167H209.766V185.969C209.761 185.358 209.606 184.916 209.301 184.643C208.995 184.365 208.508 184.226 207.838 184.226C207.41 184.226 206.977 184.287 206.539 184.41C206.102 184.533 205.675 184.713 205.261 184.95V183.692C205.726 183.515 206.17 183.382 206.594 183.296C207.022 183.205 207.437 183.159 207.838 183.159C208.471 183.159 209.011 183.253 209.458 183.439C209.909 183.626 210.274 183.907 210.552 184.28C210.725 184.508 210.848 184.791 210.921 185.128C210.994 185.461 211.03 185.962 211.03 186.632Z" fill="black"/>
<path d="M131.027 115.666C131.027 114.857 130.895 114.244 130.629 113.826C130.367 113.404 129.984 113.193 129.48 113.193C128.953 113.193 128.551 113.404 128.273 113.826C127.996 114.244 127.857 114.857 127.857 115.666C127.857 116.475 127.996 117.092 128.273 117.518C128.555 117.939 128.961 118.15 129.492 118.15C129.988 118.15 130.367 117.938 130.629 117.512C130.895 117.086 131.027 116.471 131.027 115.666ZM132.105 118.578C132.105 119.562 131.873 120.309 131.408 120.816C130.943 121.324 130.26 121.578 129.357 121.578C129.061 121.578 128.75 121.551 128.426 121.496C128.102 121.441 127.777 121.361 127.453 121.256V120.189C127.836 120.369 128.184 120.502 128.496 120.588C128.809 120.674 129.096 120.717 129.357 120.717C129.939 120.717 130.363 120.559 130.629 120.242C130.895 119.926 131.027 119.424 131.027 118.736V118.689V117.957C130.855 118.324 130.621 118.598 130.324 118.777C130.027 118.957 129.666 119.047 129.24 119.047C128.475 119.047 127.863 118.74 127.406 118.127C126.949 117.514 126.721 116.693 126.721 115.666C126.721 114.635 126.949 113.812 127.406 113.199C127.863 112.586 128.475 112.279 129.24 112.279C129.662 112.279 130.02 112.363 130.312 112.531C130.605 112.699 130.844 112.959 131.027 113.311V112.461H132.105V118.578ZM135.082 112.461H137.842V118.162H139.98V119H134.625V118.162H136.764V113.299H135.082V112.461ZM136.764 109.912H137.842V111.271H136.764V109.912ZM144.059 110.574V112.438H146.508V113.275H144.059V116.838C144.059 117.322 144.15 117.66 144.334 117.852C144.518 118.043 144.838 118.139 145.295 118.139H146.508V119H145.189C144.381 119 143.811 118.838 143.479 118.514C143.146 118.189 142.98 117.631 142.98 116.838V113.275H141.229V112.438H142.98V110.574H144.059ZM161.139 118.666C160.85 118.834 160.551 118.959 160.242 119.041C159.938 119.127 159.625 119.17 159.305 119.17C158.289 119.17 157.494 118.865 156.92 118.256C156.35 117.646 156.064 116.803 156.064 115.725C156.064 114.646 156.35 113.803 156.92 113.193C157.494 112.584 158.289 112.279 159.305 112.279C159.621 112.279 159.93 112.32 160.23 112.402C160.531 112.484 160.834 112.611 161.139 112.783V113.914C160.854 113.66 160.566 113.477 160.277 113.363C159.992 113.25 159.668 113.193 159.305 113.193C158.629 113.193 158.109 113.412 157.746 113.85C157.383 114.287 157.201 114.912 157.201 115.725C157.201 116.533 157.383 117.158 157.746 117.6C158.113 118.037 158.633 118.256 159.305 118.256C159.68 118.256 160.016 118.199 160.312 118.086C160.609 117.969 160.885 117.789 161.139 117.547V118.666ZM165.762 113.193C165.215 113.193 164.801 113.406 164.52 113.832C164.238 114.258 164.098 114.889 164.098 115.725C164.098 116.557 164.238 117.188 164.52 117.617C164.801 118.043 165.215 118.256 165.762 118.256C166.312 118.256 166.729 118.043 167.01 117.617C167.291 117.188 167.432 116.557 167.432 115.725C167.432 114.889 167.291 114.258 167.01 113.832C166.729 113.406 166.312 113.193 165.762 113.193ZM165.762 112.279C166.672 112.279 167.367 112.574 167.848 113.164C168.332 113.754 168.574 114.607 168.574 115.725C168.574 116.846 168.334 117.701 167.854 118.291C167.373 118.877 166.676 119.17 165.762 119.17C164.852 119.17 164.156 118.877 163.676 118.291C163.195 117.701 162.955 116.846 162.955 115.725C162.955 114.607 163.195 113.754 163.676 113.164C164.156 112.574 164.852 112.279 165.762 112.279ZM173.344 113.105C173.477 112.824 173.645 112.617 173.848 112.484C174.055 112.348 174.303 112.279 174.592 112.279C175.119 112.279 175.49 112.484 175.705 112.895C175.924 113.301 176.033 114.068 176.033 115.197V119H175.049V115.244C175.049 114.318 174.996 113.744 174.891 113.521C174.789 113.295 174.602 113.182 174.328 113.182C174.016 113.182 173.801 113.303 173.684 113.545C173.57 113.783 173.514 114.35 173.514 115.244V119H172.529V115.244C172.529 114.307 172.473 113.729 172.359 113.51C172.25 113.291 172.051 113.182 171.762 113.182C171.477 113.182 171.277 113.303 171.164 113.545C171.055 113.783 171 114.35 171 115.244V119H170.021V112.438H171V113C171.129 112.766 171.289 112.588 171.48 112.467C171.676 112.342 171.896 112.279 172.143 112.279C172.439 112.279 172.686 112.348 172.881 112.484C173.08 112.621 173.234 112.828 173.344 113.105ZM180.574 113.105C180.707 112.824 180.875 112.617 181.078 112.484C181.285 112.348 181.533 112.279 181.822 112.279C182.35 112.279 182.721 112.484 182.936 112.895C183.154 113.301 183.264 114.068 183.264 115.197V119H182.279V115.244C182.279 114.318 182.227 113.744 182.121 113.521C182.02 113.295 181.832 113.182 181.559 113.182C181.246 113.182 181.031 113.303 180.914 113.545C180.801 113.783 180.744 114.35 180.744 115.244V119H179.76V115.244C179.76 114.307 179.703 113.729 179.59 113.51C179.48 113.291 179.281 113.182 178.992 113.182C178.707 113.182 178.508 113.303 178.395 113.545C178.285 113.783 178.23 114.35 178.23 115.244V119H177.252V112.438H178.23V113C178.359 112.766 178.52 112.588 178.711 112.467C178.906 112.342 179.127 112.279 179.373 112.279C179.67 112.279 179.916 112.348 180.111 112.484C180.311 112.621 180.465 112.828 180.574 113.105ZM185.695 112.461H188.455V118.162H190.594V119H185.238V118.162H187.377V113.299H185.695V112.461ZM187.377 109.912H188.455V111.271H187.377V109.912ZM194.672 110.574V112.438H197.121V113.275H194.672V116.838C194.672 117.322 194.764 117.66 194.947 117.852C195.131 118.043 195.451 118.139 195.908 118.139H197.121V119H195.803C194.994 119 194.424 118.838 194.092 118.514C193.76 118.189 193.594 117.631 193.594 116.838V113.275H191.842V112.438H193.594V110.574H194.672Z" fill="black"/>
<rect x="75" y="20" width="174" height="48" fill="#40E0D0"/>
<path d="M127.896 42.9229C127.627 42.7132 127.353 42.5605 127.075 42.4648C126.797 42.3691 126.492 42.3213 126.159 42.3213C125.375 42.3213 124.776 42.5674 124.361 43.0596C123.947 43.5518 123.739 44.2627 123.739 45.1924V49H122.475V41.3438H123.739V42.8408C123.949 42.2985 124.27 41.8838 124.703 41.5967C125.141 41.305 125.658 41.1592 126.255 41.1592C126.565 41.1592 126.854 41.1979 127.123 41.2754C127.392 41.3529 127.649 41.4736 127.896 41.6377V42.9229ZM136.092 44.543V45.1582H130.644V45.1992C130.607 46.2428 130.805 46.9925 131.238 47.4482C131.676 47.904 132.291 48.1318 133.084 48.1318C133.485 48.1318 133.904 48.068 134.342 47.9404C134.779 47.8128 135.246 47.6191 135.743 47.3594V48.6104C135.265 48.8063 134.802 48.9521 134.355 49.0479C133.913 49.1481 133.485 49.1982 133.07 49.1982C131.881 49.1982 130.951 48.8428 130.281 48.1318C129.611 47.4163 129.276 46.432 129.276 45.1787C129.276 43.9574 129.604 42.9821 130.261 42.2529C130.917 41.5238 131.792 41.1592 132.886 41.1592C133.861 41.1592 134.629 41.4896 135.189 42.1504C135.755 42.8112 136.055 43.6087 136.092 44.543ZM134.834 44.1738C134.779 43.6452 134.586 43.1895 134.253 42.8066C133.925 42.4193 133.451 42.2256 132.831 42.2256C132.225 42.2256 131.726 42.4261 131.334 42.8271C130.942 43.2282 130.728 43.6794 130.691 44.1807L134.834 44.1738ZM139.435 48.0361V51.9121H138.17V41.3438H139.435V42.3213C139.644 41.943 139.922 41.6559 140.269 41.46C140.619 41.2594 141.023 41.1592 141.479 41.1592C142.404 41.1592 143.128 41.5169 143.652 42.2324C144.181 42.9479 144.445 43.9391 144.445 45.2061C144.445 46.4502 144.181 47.4277 143.652 48.1387C143.124 48.8451 142.399 49.1982 141.479 49.1982C141.014 49.1982 140.606 49.1003 140.255 48.9043C139.909 48.7038 139.635 48.4144 139.435 48.0361ZM143.126 45.1787C143.126 44.2035 142.971 43.4674 142.661 42.9707C142.356 42.474 141.9 42.2256 141.294 42.2256C140.683 42.2256 140.221 42.4762 139.906 42.9775C139.592 43.4743 139.435 44.208 139.435 45.1787C139.435 46.1449 139.592 46.8786 139.906 47.3799C140.221 47.8812 140.683 48.1318 141.294 48.1318C141.9 48.1318 142.356 47.8835 142.661 47.3867C142.971 46.89 143.126 46.154 143.126 45.1787ZM149.518 42.2256C148.88 42.2256 148.396 42.474 148.068 42.9707C147.74 43.4674 147.576 44.2035 147.576 45.1787C147.576 46.1494 147.74 46.8854 148.068 47.3867C148.396 47.8835 148.88 48.1318 149.518 48.1318C150.16 48.1318 150.646 47.8835 150.974 47.3867C151.302 46.8854 151.466 46.1494 151.466 45.1787C151.466 44.2035 151.302 43.4674 150.974 42.9707C150.646 42.474 150.16 42.2256 149.518 42.2256ZM149.518 41.1592C150.579 41.1592 151.391 41.5033 151.951 42.1914C152.516 42.8796 152.799 43.8753 152.799 45.1787C152.799 46.4867 152.519 47.4847 151.958 48.1729C151.397 48.8564 150.584 49.1982 149.518 49.1982C148.456 49.1982 147.645 48.8564 147.084 48.1729C146.523 47.4847 146.243 46.4867 146.243 45.1787C146.243 43.8753 146.523 42.8796 147.084 42.1914C147.645 41.5033 148.456 41.1592 149.518 41.1592ZM160.394 41.6104V42.8408C160.034 42.6312 159.671 42.474 159.307 42.3691C158.942 42.2643 158.571 42.2119 158.192 42.2119C157.623 42.2119 157.197 42.3053 156.914 42.4922C156.636 42.6745 156.497 42.9548 156.497 43.333C156.497 43.6748 156.602 43.93 156.812 44.0986C157.021 44.2673 157.543 44.4313 158.377 44.5908L158.883 44.6865C159.507 44.805 159.979 45.042 160.298 45.3975C160.621 45.7529 160.783 46.2155 160.783 46.7852C160.783 47.5417 160.514 48.1341 159.977 48.5625C159.439 48.9863 158.691 49.1982 157.734 49.1982C157.356 49.1982 156.96 49.1572 156.545 49.0752C156.13 48.9977 155.681 48.8792 155.198 48.7197V47.4209C155.668 47.6624 156.117 47.8447 156.545 47.9678C156.973 48.0863 157.379 48.1455 157.762 48.1455C158.318 48.1455 158.748 48.0339 159.054 47.8105C159.359 47.5827 159.512 47.266 159.512 46.8604C159.512 46.277 158.953 45.8737 157.837 45.6504L157.782 45.6367L157.311 45.541C156.586 45.3997 156.057 45.1628 155.725 44.8301C155.392 44.4928 155.226 44.0348 155.226 43.4561C155.226 42.7223 155.474 42.1572 155.971 41.7607C156.467 41.3597 157.176 41.1592 158.097 41.1592C158.507 41.1592 158.901 41.1979 159.279 41.2754C159.658 41.3483 160.029 41.46 160.394 41.6104ZM164.338 41.3711H167.558V48.0225H170.053V49H163.805V48.0225H166.3V42.3486H164.338V41.3711ZM166.3 38.3975H167.558V39.9834H166.3V38.3975ZM174.811 39.1699V41.3438H177.668V42.3213H174.811V46.4775C174.811 47.0426 174.918 47.4368 175.132 47.6602C175.346 47.8835 175.72 47.9951 176.253 47.9951H177.668V49H176.13C175.187 49 174.521 48.8109 174.134 48.4326C173.746 48.0544 173.553 47.4027 173.553 46.4775V42.3213H171.509V41.3438H173.553V39.1699H174.811ZM183.26 42.2256C182.622 42.2256 182.139 42.474 181.811 42.9707C181.482 43.4674 181.318 44.2035 181.318 45.1787C181.318 46.1494 181.482 46.8854 181.811 47.3867C182.139 47.8835 182.622 48.1318 183.26 48.1318C183.902 48.1318 184.388 47.8835 184.716 47.3867C185.044 46.8854 185.208 46.1494 185.208 45.1787C185.208 44.2035 185.044 43.4674 184.716 42.9707C184.388 42.474 183.902 42.2256 183.26 42.2256ZM183.26 41.1592C184.322 41.1592 185.133 41.5033 185.693 42.1914C186.258 42.8796 186.541 43.8753 186.541 45.1787C186.541 46.4867 186.261 47.4847 185.7 48.1729C185.14 48.8564 184.326 49.1982 183.26 49.1982C182.198 49.1982 181.387 48.8564 180.826 48.1729C180.266 47.4847 179.985 46.4867 179.985 45.1787C179.985 43.8753 180.266 42.8796 180.826 42.1914C181.387 41.5033 182.198 41.1592 183.26 41.1592ZM195.38 42.9229C195.111 42.7132 194.838 42.5605 194.56 42.4648C194.282 42.3691 193.976 42.3213 193.644 42.3213C192.86 42.3213 192.26 42.5674 191.846 43.0596C191.431 43.5518 191.224 44.2627 191.224 45.1924V49H189.959V41.3438H191.224V42.8408C191.433 42.2985 191.755 41.8838 192.188 41.5967C192.625 41.305 193.142 41.1592 193.739 41.1592C194.049 41.1592 194.339 41.1979 194.607 41.2754C194.876 41.3529 195.134 41.4736 195.38 41.6377V42.9229ZM201.785 46.5391C201.576 47.0723 201.309 47.7741 200.985 48.6445C200.534 49.8477 200.231 50.5814 200.076 50.8457C199.867 51.2012 199.604 51.4678 199.29 51.6455C198.976 51.8232 198.609 51.9121 198.189 51.9121H197.178V50.8594H197.923C198.292 50.8594 198.581 50.7523 198.791 50.5381C199.001 50.3239 199.267 49.7702 199.591 48.877L196.631 41.3438H197.964L200.233 47.332L202.469 41.3438H203.802L201.785 46.5391Z" fill="black"/>
<path d="M163.061 124.939C162.475 124.354 161.525 124.354 160.939 124.939L151.393 134.485C150.808 135.071 150.808 136.021 151.393 136.607C151.979 137.192 152.929 137.192 153.515 136.607L162 128.121L170.485 136.607C171.071 137.192 172.021 137.192 172.607 136.607C173.192 136.021 173.192 135.071 172.607 134.485L163.061 124.939ZM163.5 158V126H160.5V158H163.5Z" fill="black"/>
<path d="M163.061 266.939C162.475 266.354 161.525 266.354 160.939 266.939L151.393 276.485C150.808 277.071 150.808 278.021 151.393 278.607C151.979 279.192 152.929 279.192 153.515 278.607L162 270.121L170.485 278.607C171.071 279.192 172.021 279.192 172.607 278.607C173.192 278.021 173.192 277.071 172.607 276.485L163.061 266.939ZM163.5 300V268H160.5V300H163.5Z" fill="black"/>
<path d="M163.061 70.9393C162.475 70.3536 161.525 70.3536 160.939 70.9393L151.393 80.4853C150.808 81.0711 150.808 82.0208 151.393 82.6066C151.979 83.1924 152.929 83.1924 153.515 82.6066L162 74.1213L170.485 82.6066C171.071 83.1924 172.021 83.1924 172.607 82.6066C173.192 82.0208 173.192 81.0711 172.607 80.4853L163.061 70.9393ZM163.5 104V72H160.5V104H163.5Z" fill="black"/>
<path d="M163.061 212.939C162.475 212.354 161.525 212.354 160.939 212.939L151.393 222.485C150.808 223.071 150.808 224.021 151.393 224.607C151.979 225.192 152.929 225.192 153.515 224.607L162 216.121L170.485 224.607C171.071 225.192 172.021 225.192 172.607 224.607C173.192 224.021 173.192 223.071 172.607 222.485L163.061 212.939ZM163.5 246V214H160.5V246H163.5Z" fill="black"/>
</svg>
