<svg width="270" height="266" viewBox="0 0 270 266" fill="none" xmlns="http://www.w3.org/2000/svg">
<rect x="83.5" y="1.5" width="185" height="263" fill="white" stroke="#808080" stroke-width="3"/>
<path d="M121.609 36.0039L123.666 28.252H124.891L122.33 37H120.895L118.334 28.252H119.559L121.609 36.0039ZM131.793 33.1797V33.707H127.123V33.7422C127.092 34.6367 127.262 35.2793 127.633 35.6699C128.008 36.0605 128.535 36.2559 129.215 36.2559C129.559 36.2559 129.918 36.2012 130.293 36.0918C130.668 35.9824 131.068 35.8164 131.494 35.5938V36.666C131.084 36.834 130.688 36.959 130.305 37.041C129.926 37.127 129.559 37.1699 129.203 37.1699C128.184 37.1699 127.387 36.8652 126.812 36.2559C126.238 35.6426 125.951 34.7988 125.951 33.7246C125.951 32.6777 126.232 31.8418 126.795 31.2168C127.357 30.5918 128.107 30.2793 129.045 30.2793C129.881 30.2793 130.539 30.5625 131.02 31.1289C131.504 31.6953 131.762 32.3789 131.793 33.1797ZM130.715 32.8633C130.668 32.4102 130.502 32.0195 130.217 31.6914C129.936 31.3594 129.529 31.1934 128.998 31.1934C128.479 31.1934 128.051 31.3652 127.715 31.709C127.379 32.0527 127.195 32.4395 127.164 32.8691L130.715 32.8633ZM139.229 31.791C138.998 31.6113 138.764 31.4805 138.525 31.3984C138.287 31.3164 138.025 31.2754 137.74 31.2754C137.068 31.2754 136.555 31.4863 136.199 31.9082C135.844 32.3301 135.666 32.9395 135.666 33.7363V37H134.582V30.4375H135.666V31.7207C135.846 31.2559 136.121 30.9004 136.492 30.6543C136.867 30.4043 137.311 30.2793 137.822 30.2793C138.088 30.2793 138.336 30.3125 138.566 30.3789C138.797 30.4453 139.018 30.5488 139.229 30.6895V31.791ZM145.393 30.666V31.7207C145.084 31.541 144.773 31.4062 144.461 31.3164C144.148 31.2266 143.83 31.1816 143.506 31.1816C143.018 31.1816 142.652 31.2617 142.41 31.4219C142.172 31.5781 142.053 31.8184 142.053 32.1426C142.053 32.4355 142.143 32.6543 142.322 32.7988C142.502 32.9434 142.949 33.084 143.664 33.2207L144.098 33.3027C144.633 33.4043 145.037 33.6074 145.311 33.9121C145.588 34.2168 145.727 34.6133 145.727 35.1016C145.727 35.75 145.496 36.2578 145.035 36.625C144.574 36.9883 143.934 37.1699 143.113 37.1699C142.789 37.1699 142.449 37.1348 142.094 37.0645C141.738 36.998 141.354 36.8965 140.939 36.7598V35.6465C141.342 35.8535 141.727 36.0098 142.094 36.1152C142.461 36.2168 142.809 36.2676 143.137 36.2676C143.613 36.2676 143.982 36.1719 144.244 35.9805C144.506 35.7852 144.637 35.5137 144.637 35.166C144.637 34.666 144.158 34.3203 143.201 34.1289L143.154 34.1172L142.75 34.0352C142.129 33.9141 141.676 33.7109 141.391 33.4258C141.105 33.1367 140.963 32.7441 140.963 32.248C140.963 31.6191 141.176 31.1348 141.602 30.7949C142.027 30.4512 142.635 30.2793 143.424 30.2793C143.775 30.2793 144.113 30.3125 144.438 30.3789C144.762 30.4414 145.08 30.5371 145.393 30.666ZM148.773 30.4609H151.533V36.1621H153.672V37H148.316V36.1621H150.455V31.2988H148.773V30.4609ZM150.455 27.9121H151.533V29.2715H150.455V27.9121ZM157.762 31.1934C157.215 31.1934 156.801 31.4062 156.52 31.832C156.238 32.2578 156.098 32.8887 156.098 33.7246C156.098 34.5566 156.238 35.1875 156.52 35.6172C156.801 36.043 157.215 36.2559 157.762 36.2559C158.312 36.2559 158.729 36.043 159.01 35.6172C159.291 35.1875 159.432 34.5566 159.432 33.7246C159.432 32.8887 159.291 32.2578 159.01 31.832C158.729 31.4062 158.312 31.1934 157.762 31.1934ZM157.762 30.2793C158.672 30.2793 159.367 30.5742 159.848 31.1641C160.332 31.7539 160.574 32.6074 160.574 33.7246C160.574 34.8457 160.334 35.7012 159.854 36.291C159.373 36.877 158.676 37.1699 157.762 37.1699C156.852 37.1699 156.156 36.877 155.676 36.291C155.195 35.7012 154.955 34.8457 154.955 33.7246C154.955 32.6074 155.195 31.7539 155.676 31.1641C156.156 30.5742 156.852 30.2793 157.762 30.2793ZM167.541 32.9336V37H166.457V32.9336C166.457 32.3438 166.354 31.9102 166.146 31.6328C165.939 31.3555 165.615 31.2168 165.174 31.2168C164.67 31.2168 164.281 31.3965 164.008 31.7559C163.738 32.1113 163.604 32.623 163.604 33.291V37H162.525V30.4375H163.604V31.4219C163.795 31.0469 164.055 30.7637 164.383 30.5723C164.711 30.377 165.1 30.2793 165.549 30.2793C166.217 30.2793 166.715 30.5 167.043 30.9414C167.375 31.3789 167.541 32.043 167.541 32.9336ZM178.398 36.0273C179.395 36.0273 180.09 35.7832 180.484 35.2949C180.879 34.8027 181.076 33.916 181.076 32.6348C181.076 31.3418 180.879 30.4512 180.484 29.9629C180.094 29.4707 179.398 29.2246 178.398 29.2246H177.836V36.0273H178.398ZM178.422 28.252C179.758 28.252 180.742 28.6074 181.375 29.3184C182.008 30.0293 182.324 31.1348 182.324 32.6348C182.324 34.127 182.008 35.2285 181.375 35.9395C180.742 36.6465 179.758 37 178.422 37H176.646V28.252H178.422ZM187.188 33.7012H186.83C186.201 33.7012 185.727 33.8125 185.406 34.0352C185.09 34.2539 184.932 34.582 184.932 35.0195C184.932 35.4141 185.051 35.7207 185.289 35.9395C185.527 36.1582 185.857 36.2676 186.279 36.2676C186.873 36.2676 187.34 36.0625 187.68 35.6523C188.02 35.2383 188.191 34.668 188.195 33.9414V33.7012H187.188ZM189.279 33.2559V37H188.195V36.0273C187.965 36.418 187.674 36.707 187.322 36.8945C186.975 37.0781 186.551 37.1699 186.051 37.1699C185.383 37.1699 184.85 36.9824 184.451 36.6074C184.053 36.2285 183.854 35.7227 183.854 35.0898C183.854 34.3594 184.098 33.8047 184.586 33.4258C185.078 33.0469 185.799 32.8574 186.748 32.8574H188.195V32.6875C188.191 32.1641 188.059 31.7852 187.797 31.5508C187.535 31.3125 187.117 31.1934 186.543 31.1934C186.176 31.1934 185.805 31.2461 185.43 31.3516C185.055 31.457 184.689 31.6113 184.334 31.8145V30.7363C184.732 30.584 185.113 30.4707 185.477 30.3965C185.844 30.3184 186.199 30.2793 186.543 30.2793C187.086 30.2793 187.549 30.3594 187.932 30.5195C188.318 30.6797 188.631 30.9199 188.869 31.2402C189.018 31.4355 189.123 31.6777 189.186 31.9668C189.248 32.252 189.279 32.6816 189.279 33.2559ZM193.902 28.5742V30.4375H196.352V31.2754H193.902V34.8379C193.902 35.3223 193.994 35.6602 194.178 35.8516C194.361 36.043 194.682 36.1387 195.139 36.1387H196.352V37H195.033C194.225 37 193.654 36.8379 193.322 36.5137C192.99 36.1895 192.824 35.6309 192.824 34.8379V31.2754H191.072V30.4375H192.824V28.5742H193.902ZM201.648 33.7012H201.291C200.662 33.7012 200.188 33.8125 199.867 34.0352C199.551 34.2539 199.393 34.582 199.393 35.0195C199.393 35.4141 199.512 35.7207 199.75 35.9395C199.988 36.1582 200.318 36.2676 200.74 36.2676C201.334 36.2676 201.801 36.0625 202.141 35.6523C202.48 35.2383 202.652 34.668 202.656 33.9414V33.7012H201.648ZM203.74 33.2559V37H202.656V36.0273C202.426 36.418 202.135 36.707 201.783 36.8945C201.436 37.0781 201.012 37.1699 200.512 37.1699C199.844 37.1699 199.311 36.9824 198.912 36.6074C198.514 36.2285 198.314 35.7227 198.314 35.0898C198.314 34.3594 198.559 33.8047 199.047 33.4258C199.539 33.0469 200.26 32.8574 201.209 32.8574H202.656V32.6875C202.652 32.1641 202.52 31.7852 202.258 31.5508C201.996 31.3125 201.578 31.1934 201.004 31.1934C200.637 31.1934 200.266 31.2461 199.891 31.3516C199.516 31.457 199.15 31.6113 198.795 31.8145V30.7363C199.193 30.584 199.574 30.4707 199.938 30.3965C200.305 30.3184 200.66 30.2793 201.004 30.2793C201.547 30.2793 202.01 30.3594 202.393 30.5195C202.779 30.6797 203.092 30.9199 203.33 31.2402C203.479 31.4355 203.584 31.6777 203.646 31.9668C203.709 32.252 203.74 32.6816 203.74 33.2559ZM210.145 33.7246C210.145 32.8887 210.012 32.2578 209.746 31.832C209.48 31.4062 209.088 31.1934 208.568 31.1934C208.045 31.1934 207.648 31.4082 207.379 31.8379C207.109 32.2637 206.975 32.8926 206.975 33.7246C206.975 34.5527 207.109 35.1816 207.379 35.6113C207.648 36.041 208.045 36.2559 208.568 36.2559C209.088 36.2559 209.48 36.043 209.746 35.6172C210.012 35.1914 210.145 34.5605 210.145 33.7246ZM206.975 31.2754C207.146 30.9551 207.383 30.709 207.684 30.5371C207.988 30.3652 208.34 30.2793 208.738 30.2793C209.527 30.2793 210.148 30.584 210.602 31.1934C211.055 31.7988 211.281 32.6348 211.281 33.7012C211.281 34.7832 211.053 35.6328 210.596 36.25C210.143 36.8633 209.52 37.1699 208.727 37.1699C208.336 37.1699 207.99 37.0859 207.689 36.918C207.393 36.7461 207.154 36.498 206.975 36.1738V37H205.896V27.8828H206.975V31.2754ZM216.109 33.7012H215.752C215.123 33.7012 214.648 33.8125 214.328 34.0352C214.012 34.2539 213.854 34.582 213.854 35.0195C213.854 35.4141 213.973 35.7207 214.211 35.9395C214.449 36.1582 214.779 36.2676 215.201 36.2676C215.795 36.2676 216.262 36.0625 216.602 35.6523C216.941 35.2383 217.113 34.668 217.117 33.9414V33.7012H216.109ZM218.201 33.2559V37H217.117V36.0273C216.887 36.418 216.596 36.707 216.244 36.8945C215.896 37.0781 215.473 37.1699 214.973 37.1699C214.305 37.1699 213.771 36.9824 213.373 36.6074C212.975 36.2285 212.775 35.7227 212.775 35.0898C212.775 34.3594 213.02 33.8047 213.508 33.4258C214 33.0469 214.721 32.8574 215.67 32.8574H217.117V32.6875C217.113 32.1641 216.98 31.7852 216.719 31.5508C216.457 31.3125 216.039 31.1934 215.465 31.1934C215.098 31.1934 214.727 31.2461 214.352 31.3516C213.977 31.457 213.611 31.6113 213.256 31.8145V30.7363C213.654 30.584 214.035 30.4707 214.398 30.3965C214.766 30.3184 215.121 30.2793 215.465 30.2793C216.008 30.2793 216.471 30.3594 216.854 30.5195C217.24 30.6797 217.553 30.9199 217.791 31.2402C217.939 31.4355 218.045 31.6777 218.107 31.9668C218.17 32.252 218.201 32.6816 218.201 33.2559ZM224.928 30.666V31.7207C224.619 31.541 224.309 31.4062 223.996 31.3164C223.684 31.2266 223.365 31.1816 223.041 31.1816C222.553 31.1816 222.188 31.2617 221.945 31.4219C221.707 31.5781 221.588 31.8184 221.588 32.1426C221.588 32.4355 221.678 32.6543 221.857 32.7988C222.037 32.9434 222.484 33.084 223.199 33.2207L223.633 33.3027C224.168 33.4043 224.572 33.6074 224.846 33.9121C225.123 34.2168 225.262 34.6133 225.262 35.1016C225.262 35.75 225.031 36.2578 224.57 36.625C224.109 36.9883 223.469 37.1699 222.648 37.1699C222.324 37.1699 221.984 37.1348 221.629 37.0645C221.273 36.998 220.889 36.8965 220.475 36.7598V35.6465C220.877 35.8535 221.262 36.0098 221.629 36.1152C221.996 36.2168 222.344 36.2676 222.672 36.2676C223.148 36.2676 223.518 36.1719 223.779 35.9805C224.041 35.7852 224.172 35.5137 224.172 35.166C224.172 34.666 223.693 34.3203 222.736 34.1289L222.689 34.1172L222.285 34.0352C221.664 33.9141 221.211 33.7109 220.926 33.4258C220.641 33.1367 220.498 32.7441 220.498 32.248C220.498 31.6191 220.711 31.1348 221.137 30.7949C221.562 30.4512 222.17 30.2793 222.959 30.2793C223.311 30.2793 223.648 30.3125 223.973 30.3789C224.297 30.4414 224.615 30.5371 224.928 30.666ZM233.02 33.1797V33.707H228.35V33.7422C228.318 34.6367 228.488 35.2793 228.859 35.6699C229.234 36.0605 229.762 36.2559 230.441 36.2559C230.785 36.2559 231.145 36.2012 231.52 36.0918C231.895 35.9824 232.295 35.8164 232.721 35.5938V36.666C232.311 36.834 231.914 36.959 231.531 37.041C231.152 37.127 230.785 37.1699 230.43 37.1699C229.41 37.1699 228.613 36.8652 228.039 36.2559C227.465 35.6426 227.178 34.7988 227.178 33.7246C227.178 32.6777 227.459 31.8418 228.021 31.2168C228.584 30.5918 229.334 30.2793 230.271 30.2793C231.107 30.2793 231.766 30.5625 232.246 31.1289C232.73 31.6953 232.988 32.3789 233.02 33.1797ZM231.941 32.8633C231.895 32.4102 231.729 32.0195 231.443 31.6914C231.162 31.3594 230.756 31.1934 230.225 31.1934C229.705 31.1934 229.277 31.3652 228.941 31.709C228.605 32.0527 228.422 32.4395 228.391 32.8691L231.941 32.8633Z" fill="black"/>
<rect x="116" y="192" width="120" height="36" rx="18" fill="#D3D3D3"/>
<path d="M146.609 213.004L148.666 205.252H149.891L147.33 214H145.895L143.334 205.252H144.559L146.609 213.004ZM156.793 210.18V210.707H152.123V210.742C152.092 211.637 152.262 212.279 152.633 212.67C153.008 213.061 153.535 213.256 154.215 213.256C154.559 213.256 154.918 213.201 155.293 213.092C155.668 212.982 156.068 212.816 156.494 212.594V213.666C156.084 213.834 155.688 213.959 155.305 214.041C154.926 214.127 154.559 214.17 154.203 214.17C153.184 214.17 152.387 213.865 151.812 213.256C151.238 212.643 150.951 211.799 150.951 210.725C150.951 209.678 151.232 208.842 151.795 208.217C152.357 207.592 153.107 207.279 154.045 207.279C154.881 207.279 155.539 207.562 156.02 208.129C156.504 208.695 156.762 209.379 156.793 210.18ZM155.715 209.863C155.668 209.41 155.502 209.02 155.217 208.691C154.936 208.359 154.529 208.193 153.998 208.193C153.479 208.193 153.051 208.365 152.715 208.709C152.379 209.053 152.195 209.439 152.164 209.869L155.715 209.863ZM164.229 208.791C163.998 208.611 163.764 208.48 163.525 208.398C163.287 208.316 163.025 208.275 162.74 208.275C162.068 208.275 161.555 208.486 161.199 208.908C160.844 209.33 160.666 209.939 160.666 210.736V214H159.582V207.438H160.666V208.721C160.846 208.256 161.121 207.9 161.492 207.654C161.867 207.404 162.311 207.279 162.822 207.279C163.088 207.279 163.336 207.312 163.566 207.379C163.797 207.445 164.018 207.549 164.229 207.689V208.791ZM170.393 207.666V208.721C170.084 208.541 169.773 208.406 169.461 208.316C169.148 208.227 168.83 208.182 168.506 208.182C168.018 208.182 167.652 208.262 167.41 208.422C167.172 208.578 167.053 208.818 167.053 209.143C167.053 209.436 167.143 209.654 167.322 209.799C167.502 209.943 167.949 210.084 168.664 210.221L169.098 210.303C169.633 210.404 170.037 210.607 170.311 210.912C170.588 211.217 170.727 211.613 170.727 212.102C170.727 212.75 170.496 213.258 170.035 213.625C169.574 213.988 168.934 214.17 168.113 214.17C167.789 214.17 167.449 214.135 167.094 214.064C166.738 213.998 166.354 213.896 165.939 213.76V212.646C166.342 212.854 166.727 213.01 167.094 213.115C167.461 213.217 167.809 213.268 168.137 213.268C168.613 213.268 168.982 213.172 169.244 212.98C169.506 212.785 169.637 212.514 169.637 212.166C169.637 211.666 169.158 211.32 168.201 211.129L168.154 211.117L167.75 211.035C167.129 210.914 166.676 210.711 166.391 210.426C166.105 210.137 165.963 209.744 165.963 209.248C165.963 208.619 166.176 208.135 166.602 207.795C167.027 207.451 167.635 207.279 168.424 207.279C168.775 207.279 169.113 207.312 169.438 207.379C169.762 207.441 170.08 207.537 170.393 207.666ZM173.773 207.461H176.533V213.162H178.672V214H173.316V213.162H175.455V208.299H173.773V207.461ZM175.455 204.912H176.533V206.271H175.455V204.912ZM182.762 208.193C182.215 208.193 181.801 208.406 181.52 208.832C181.238 209.258 181.098 209.889 181.098 210.725C181.098 211.557 181.238 212.188 181.52 212.617C181.801 213.043 182.215 213.256 182.762 213.256C183.312 213.256 183.729 213.043 184.01 212.617C184.291 212.188 184.432 211.557 184.432 210.725C184.432 209.889 184.291 209.258 184.01 208.832C183.729 208.406 183.312 208.193 182.762 208.193ZM182.762 207.279C183.672 207.279 184.367 207.574 184.848 208.164C185.332 208.754 185.574 209.607 185.574 210.725C185.574 211.846 185.334 212.701 184.854 213.291C184.373 213.877 183.676 214.17 182.762 214.17C181.852 214.17 181.156 213.877 180.676 213.291C180.195 212.701 179.955 211.846 179.955 210.725C179.955 209.607 180.195 208.754 180.676 208.164C181.156 207.574 181.852 207.279 182.762 207.279ZM192.541 209.934V214H191.457V209.934C191.457 209.344 191.354 208.91 191.146 208.633C190.939 208.355 190.615 208.217 190.174 208.217C189.67 208.217 189.281 208.396 189.008 208.756C188.738 209.111 188.604 209.623 188.604 210.291V214H187.525V207.438H188.604V208.422C188.795 208.047 189.055 207.764 189.383 207.572C189.711 207.377 190.1 207.279 190.549 207.279C191.217 207.279 191.715 207.5 192.043 207.941C192.375 208.379 192.541 209.043 192.541 209.934ZM202.426 213.01H204.266V206.4L202.062 207.461V206.324L204.254 205.281H205.438V213.01H207.254V214H202.426V213.01Z" fill="black"/>
<rect x="116" y="132" width="120" height="36" rx="18" fill="#D3D3D3"/>
<path d="M146.609 153.004L148.666 145.252H149.891L147.33 154H145.895L143.334 145.252H144.559L146.609 153.004ZM156.793 150.18V150.707H152.123V150.742C152.092 151.637 152.262 152.279 152.633 152.67C153.008 153.061 153.535 153.256 154.215 153.256C154.559 153.256 154.918 153.201 155.293 153.092C155.668 152.982 156.068 152.816 156.494 152.594V153.666C156.084 153.834 155.688 153.959 155.305 154.041C154.926 154.127 154.559 154.17 154.203 154.17C153.184 154.17 152.387 153.865 151.812 153.256C151.238 152.643 150.951 151.799 150.951 150.725C150.951 149.678 151.232 148.842 151.795 148.217C152.357 147.592 153.107 147.279 154.045 147.279C154.881 147.279 155.539 147.562 156.02 148.129C156.504 148.695 156.762 149.379 156.793 150.18ZM155.715 149.863C155.668 149.41 155.502 149.02 155.217 148.691C154.936 148.359 154.529 148.193 153.998 148.193C153.479 148.193 153.051 148.365 152.715 148.709C152.379 149.053 152.195 149.439 152.164 149.869L155.715 149.863ZM164.229 148.791C163.998 148.611 163.764 148.48 163.525 148.398C163.287 148.316 163.025 148.275 162.74 148.275C162.068 148.275 161.555 148.486 161.199 148.908C160.844 149.33 160.666 149.939 160.666 150.736V154H159.582V147.438H160.666V148.721C160.846 148.256 161.121 147.9 161.492 147.654C161.867 147.404 162.311 147.279 162.822 147.279C163.088 147.279 163.336 147.312 163.566 147.379C163.797 147.445 164.018 147.549 164.229 147.689V148.791ZM170.393 147.666V148.721C170.084 148.541 169.773 148.406 169.461 148.316C169.148 148.227 168.83 148.182 168.506 148.182C168.018 148.182 167.652 148.262 167.41 148.422C167.172 148.578 167.053 148.818 167.053 149.143C167.053 149.436 167.143 149.654 167.322 149.799C167.502 149.943 167.949 150.084 168.664 150.221L169.098 150.303C169.633 150.404 170.037 150.607 170.311 150.912C170.588 151.217 170.727 151.613 170.727 152.102C170.727 152.75 170.496 153.258 170.035 153.625C169.574 153.988 168.934 154.17 168.113 154.17C167.789 154.17 167.449 154.135 167.094 154.064C166.738 153.998 166.354 153.896 165.939 153.76V152.646C166.342 152.854 166.727 153.01 167.094 153.115C167.461 153.217 167.809 153.268 168.137 153.268C168.613 153.268 168.982 153.172 169.244 152.98C169.506 152.785 169.637 152.514 169.637 152.166C169.637 151.666 169.158 151.32 168.201 151.129L168.154 151.117L167.75 151.035C167.129 150.914 166.676 150.711 166.391 150.426C166.105 150.137 165.963 149.744 165.963 149.248C165.963 148.619 166.176 148.135 166.602 147.795C167.027 147.451 167.635 147.279 168.424 147.279C168.775 147.279 169.113 147.312 169.438 147.379C169.762 147.441 170.08 147.537 170.393 147.666ZM173.773 147.461H176.533V153.162H178.672V154H173.316V153.162H175.455V148.299H173.773V147.461ZM175.455 144.912H176.533V146.271H175.455V144.912ZM182.762 148.193C182.215 148.193 181.801 148.406 181.52 148.832C181.238 149.258 181.098 149.889 181.098 150.725C181.098 151.557 181.238 152.188 181.52 152.617C181.801 153.043 182.215 153.256 182.762 153.256C183.312 153.256 183.729 153.043 184.01 152.617C184.291 152.188 184.432 151.557 184.432 150.725C184.432 149.889 184.291 149.258 184.01 148.832C183.729 148.406 183.312 148.193 182.762 148.193ZM182.762 147.279C183.672 147.279 184.367 147.574 184.848 148.164C185.332 148.754 185.574 149.607 185.574 150.725C185.574 151.846 185.334 152.701 184.854 153.291C184.373 153.877 183.676 154.17 182.762 154.17C181.852 154.17 181.156 153.877 180.676 153.291C180.195 152.701 179.955 151.846 179.955 150.725C179.955 149.607 180.195 148.754 180.676 148.164C181.156 147.574 181.852 147.279 182.762 147.279ZM192.541 149.934V154H191.457V149.934C191.457 149.344 191.354 148.91 191.146 148.633C190.939 148.355 190.615 148.217 190.174 148.217C189.67 148.217 189.281 148.396 189.008 148.756C188.738 149.111 188.604 149.623 188.604 150.291V154H187.525V147.438H188.604V148.422C188.795 148.047 189.055 147.764 189.383 147.572C189.711 147.377 190.1 147.279 190.549 147.279C191.217 147.279 191.715 147.5 192.043 147.941C192.375 148.379 192.541 149.043 192.541 149.934ZM203.029 153.004H207.049V154H201.734V153.004C202.465 152.234 203.104 151.555 203.65 150.965C204.197 150.375 204.574 149.959 204.781 149.717C205.172 149.24 205.436 148.855 205.572 148.562C205.709 148.266 205.777 147.963 205.777 147.654C205.777 147.166 205.633 146.783 205.344 146.506C205.059 146.229 204.666 146.09 204.166 146.09C203.811 146.09 203.438 146.154 203.047 146.283C202.656 146.412 202.242 146.607 201.805 146.869V145.674C202.207 145.482 202.602 145.338 202.988 145.24C203.379 145.143 203.764 145.094 204.143 145.094C204.998 145.094 205.686 145.322 206.205 145.779C206.729 146.232 206.99 146.828 206.99 147.566C206.99 147.941 206.902 148.316 206.727 148.691C206.555 149.066 206.273 149.48 205.883 149.934C205.664 150.188 205.346 150.539 204.928 150.988C204.514 151.438 203.881 152.109 203.029 153.004Z" fill="black"/>
<rect x="116" y="72" width="120" height="36" rx="18" fill="#D3D3D3"/>
<path d="M146.609 93.0039L148.666 85.252H149.891L147.33 94H145.895L143.334 85.252H144.559L146.609 93.0039ZM156.793 90.1797V90.707H152.123V90.7422C152.092 91.6367 152.262 92.2793 152.633 92.6699C153.008 93.0605 153.535 93.2559 154.215 93.2559C154.559 93.2559 154.918 93.2012 155.293 93.0918C155.668 92.9824 156.068 92.8164 156.494 92.5938V93.666C156.084 93.834 155.688 93.959 155.305 94.041C154.926 94.127 154.559 94.1699 154.203 94.1699C153.184 94.1699 152.387 93.8652 151.812 93.2559C151.238 92.6426 150.951 91.7988 150.951 90.7246C150.951 89.6777 151.232 88.8418 151.795 88.2168C152.357 87.5918 153.107 87.2793 154.045 87.2793C154.881 87.2793 155.539 87.5625 156.02 88.1289C156.504 88.6953 156.762 89.3789 156.793 90.1797ZM155.715 89.8633C155.668 89.4102 155.502 89.0195 155.217 88.6914C154.936 88.3594 154.529 88.1934 153.998 88.1934C153.479 88.1934 153.051 88.3652 152.715 88.709C152.379 89.0527 152.195 89.4395 152.164 89.8691L155.715 89.8633ZM164.229 88.791C163.998 88.6113 163.764 88.4805 163.525 88.3984C163.287 88.3164 163.025 88.2754 162.74 88.2754C162.068 88.2754 161.555 88.4863 161.199 88.9082C160.844 89.3301 160.666 89.9395 160.666 90.7363V94H159.582V87.4375H160.666V88.7207C160.846 88.2559 161.121 87.9004 161.492 87.6543C161.867 87.4043 162.311 87.2793 162.822 87.2793C163.088 87.2793 163.336 87.3125 163.566 87.3789C163.797 87.4453 164.018 87.5488 164.229 87.6895V88.791ZM170.393 87.666V88.7207C170.084 88.541 169.773 88.4062 169.461 88.3164C169.148 88.2266 168.83 88.1816 168.506 88.1816C168.018 88.1816 167.652 88.2617 167.41 88.4219C167.172 88.5781 167.053 88.8184 167.053 89.1426C167.053 89.4355 167.143 89.6543 167.322 89.7988C167.502 89.9434 167.949 90.084 168.664 90.2207L169.098 90.3027C169.633 90.4043 170.037 90.6074 170.311 90.9121C170.588 91.2168 170.727 91.6133 170.727 92.1016C170.727 92.75 170.496 93.2578 170.035 93.625C169.574 93.9883 168.934 94.1699 168.113 94.1699C167.789 94.1699 167.449 94.1348 167.094 94.0645C166.738 93.998 166.354 93.8965 165.939 93.7598V92.6465C166.342 92.8535 166.727 93.0098 167.094 93.1152C167.461 93.2168 167.809 93.2676 168.137 93.2676C168.613 93.2676 168.982 93.1719 169.244 92.9805C169.506 92.7852 169.637 92.5137 169.637 92.166C169.637 91.666 169.158 91.3203 168.201 91.1289L168.154 91.1172L167.75 91.0352C167.129 90.9141 166.676 90.7109 166.391 90.4258C166.105 90.1367 165.963 89.7441 165.963 89.248C165.963 88.6191 166.176 88.1348 166.602 87.7949C167.027 87.4512 167.635 87.2793 168.424 87.2793C168.775 87.2793 169.113 87.3125 169.438 87.3789C169.762 87.4414 170.08 87.5371 170.393 87.666ZM173.773 87.4609H176.533V93.1621H178.672V94H173.316V93.1621H175.455V88.2988H173.773V87.4609ZM175.455 84.9121H176.533V86.2715H175.455V84.9121ZM182.762 88.1934C182.215 88.1934 181.801 88.4062 181.52 88.832C181.238 89.2578 181.098 89.8887 181.098 90.7246C181.098 91.5566 181.238 92.1875 181.52 92.6172C181.801 93.043 182.215 93.2559 182.762 93.2559C183.312 93.2559 183.729 93.043 184.01 92.6172C184.291 92.1875 184.432 91.5566 184.432 90.7246C184.432 89.8887 184.291 89.2578 184.01 88.832C183.729 88.4062 183.312 88.1934 182.762 88.1934ZM182.762 87.2793C183.672 87.2793 184.367 87.5742 184.848 88.1641C185.332 88.7539 185.574 89.6074 185.574 90.7246C185.574 91.8457 185.334 92.7012 184.854 93.291C184.373 93.877 183.676 94.1699 182.762 94.1699C181.852 94.1699 181.156 93.877 180.676 93.291C180.195 92.7012 179.955 91.8457 179.955 90.7246C179.955 89.6074 180.195 88.7539 180.676 88.1641C181.156 87.5742 181.852 87.2793 182.762 87.2793ZM192.541 89.9336V94H191.457V89.9336C191.457 89.3438 191.354 88.9102 191.146 88.6328C190.939 88.3555 190.615 88.2168 190.174 88.2168C189.67 88.2168 189.281 88.3965 189.008 88.7559C188.738 89.1113 188.604 89.623 188.604 90.291V94H187.525V87.4375H188.604V88.4219C188.795 88.0469 189.055 87.7637 189.383 87.5723C189.711 87.377 190.1 87.2793 190.549 87.2793C191.217 87.2793 191.715 87.5 192.043 87.9414C192.375 88.3789 192.541 89.043 192.541 89.9336ZM205.391 89.3184C205.965 89.4707 206.404 89.7422 206.709 90.1328C207.014 90.5195 207.166 91.0039 207.166 91.5859C207.166 92.3906 206.895 93.0234 206.352 93.4844C205.812 93.9414 205.064 94.1699 204.107 94.1699C203.705 94.1699 203.295 94.1328 202.877 94.0586C202.459 93.9844 202.049 93.877 201.646 93.7363V92.5586C202.045 92.7656 202.438 92.9199 202.824 93.0215C203.211 93.123 203.596 93.1738 203.979 93.1738C204.627 93.1738 205.125 93.0273 205.473 92.7344C205.82 92.4414 205.994 92.0195 205.994 91.4688C205.994 90.9609 205.82 90.5586 205.473 90.2617C205.125 89.9609 204.654 89.8105 204.061 89.8105H203.158V88.8379H204.061C204.604 88.8379 205.027 88.7188 205.332 88.4805C205.637 88.2422 205.789 87.9102 205.789 87.4844C205.789 87.0352 205.646 86.6914 205.361 86.4531C205.08 86.2109 204.678 86.0898 204.154 86.0898C203.807 86.0898 203.447 86.1289 203.076 86.207C202.705 86.2852 202.316 86.4023 201.91 86.5586V85.4688C202.383 85.3438 202.803 85.25 203.17 85.1875C203.541 85.125 203.869 85.0938 204.154 85.0938C205.006 85.0938 205.686 85.3086 206.193 85.7383C206.705 86.1641 206.961 86.7305 206.961 87.4375C206.961 87.918 206.826 88.3184 206.557 88.6387C206.291 88.959 205.902 89.1855 205.391 89.3184Z" fill="black"/>
<line x1="176.5" y1="108" x2="176.5" y2="132" stroke="black"/>
<line x1="176.5" y1="168" x2="176.5" y2="192" stroke="black"/>
</svg>
